<svg width="81" height="68" viewBox="0 0 81 68" fill="none" xmlns="http://www.w3.org/2000/svg">
<path d="M26.826 39.5581C26.0102 39.5667 25.2093 39.7775 24.495 40.1715C23.7807 40.5656 23.1753 41.1306 22.733 41.8161C21.5894 43.4318 21.007 45.3778 21.075 47.3561C21.0129 49.3392 21.5946 51.2891 22.733 52.9141C23.1766 53.5983 23.7823 54.1624 24.4963 54.5563C25.2104 54.9502 26.0106 55.1618 26.826 55.1721C27.6117 55.1461 28.3789 54.9264 29.0593 54.5325C29.7397 54.1386 30.3122 53.5826 30.726 52.9141C31.8721 51.2928 32.4545 49.3403 32.384 47.3561C32.4434 45.3789 31.8618 43.4356 30.726 41.8161C30.3136 41.1464 29.7413 40.5895 29.0607 40.1954C28.38 39.8013 27.6121 39.5823 26.826 39.5581Z" fill="#141462"/>
<path d="M54.406 39.5581C53.5906 39.5686 52.7905 39.7802 52.0765 40.1741C51.3625 40.568 50.7568 41.132 50.313 41.8161C49.1695 43.4318 48.5871 45.3778 48.655 47.3561C48.5929 49.3392 49.1746 51.2891 50.313 52.9141C50.7582 53.5969 51.3642 54.1598 52.0779 54.5535C52.7916 54.9472 53.591 55.1597 54.406 55.1721C55.1937 55.1443 55.9625 54.9239 56.6453 54.5303C57.3282 54.1367 57.9042 53.5818 58.323 52.9141C59.4691 51.2928 60.0516 49.3403 59.981 47.3561C60.0404 45.3789 59.4588 43.4356 58.323 41.8161C57.9086 41.1444 57.3336 40.5863 56.6498 40.1921C55.966 39.798 55.1949 39.5801 54.406 39.5581Z" fill="#141462"/>
<path d="M74.008 19.18C74.3094 16.8856 74.3272 14.5628 74.061 12.264C73.7314 8.09757 72.7736 4.00495 71.22 0.125C71.22 0.125 70.444 0.266 68.962 0.637C66.4851 1.29105 64.0715 2.16485 61.75 3.248C58.1679 4.93794 54.728 6.91436 51.464 9.158C47.8772 8.34461 44.2008 7.99475 40.525 8.117C36.85 8.02116 33.1769 8.37071 29.586 9.158C21.7147 3.70667 15.1207 0.695667 9.804 0.125C8.24631 4.01486 7.29425 8.12057 6.981 12.299C6.70205 14.6035 6.72525 16.9345 7.05 19.233C2.764 23.873 1 30.56 1 36.082C0.844476 39.9647 1.20632 43.8508 2.076 47.638C2.86372 50.5952 4.12068 53.4069 5.799 55.966C7.33418 58.1367 9.21795 60.0384 11.374 61.594C13.239 63.0326 15.2781 64.2301 17.443 65.158C19.4866 65.9812 21.6179 66.5673 23.795 66.905C25.5733 67.2456 27.37 67.4814 29.176 67.611C29.176 67.611 34.116 67.876 40.538 67.876C46.96 67.876 51.883 67.611 51.883 67.611C53.6887 67.4792 55.4854 67.2435 57.264 66.905C59.4335 66.5591 61.5579 65.9732 63.598 65.158C65.7633 64.2199 67.8072 63.0232 69.685 61.594C71.8399 60.0427 73.7188 58.1402 75.243 55.966C76.9213 53.4069 78.1783 50.5952 78.966 47.638C79.936 44.215 80.042 40.338 80.042 36.064C80.042 30.718 78.277 23.943 74.008 19.18ZM62.469 60.394C57.55 62.705 50.313 63.641 40.715 63.641H40.344C30.744 63.641 23.512 62.724 18.678 60.395C13.826 58.084 11.391 53.32 11.391 46.157C11.328 44.195 11.6987 42.2433 12.4765 40.4409C13.2543 38.6386 14.4202 37.0301 15.891 35.73C17.2892 34.5335 18.9626 33.703 20.761 33.313C22.5562 32.9227 24.3955 32.7744 26.23 32.872C27.888 32.943 30.217 33.26 33.164 33.49C36.128 33.719 38.333 34.019 40.539 34.019C42.603 34.019 45.339 33.666 49.731 33.313C54.142 32.96 57.406 32.784 59.523 33.137C61.6313 33.3987 63.6083 34.3022 65.186 35.725C66.6884 37.0097 67.8881 38.6107 68.6995 40.4133C69.5108 42.2159 69.9136 44.1755 69.879 46.152C69.861 53.319 67.374 58.083 62.469 60.394Z" fill="#141462"/>
</svg>
