<svg width="1797" height="1213" viewBox="0 0 1797 1213" fill="none" xmlns="http://www.w3.org/2000/svg">
<path d="M25.8181 1156.38C29.3015 946.034 -9.12824 804.781 2.04406 683.338C7.24275 626.792 13.5474 567.214 57.6723 519.109C103.091 469.597 170.012 454.475 302.003 426.255C430.165 398.855 431.165 414.3 470.724 392.069C560.809 341.436 542.136 268.91 645.704 185.362C666.98 168.201 723.932 123.324 807.277 108.548C877.786 96.0441 933.309 111.091 1008.59 132.39C1137.63 168.893 1143.74 203.396 1244.34 219.797C1333.38 234.317 1339.18 209.008 1419.16 227.742C1454.87 236.108 1558.84 260.461 1612.52 344.287C1648.9 401.097 1623.13 424.254 1654.9 519.109C1690.59 625.701 1731.74 622.203 1768.79 717.773C1817.03 842.18 1790.61 959.854 1782.04 995.899C1757.34 1099.66 1731.67 1119.61 1700.11 1156.38C1134.18 1148.44 591.746 1164.33 25.8106 1156.38H25.8181Z" fill="#D6DFF2"/>
<path opacity="0.54" d="M1397.34 1007.68C1398.05 1002.69 1398.33 997.652 1398.17 992.619C1398.17 987.345 1397.34 982.831 1397.34 977.557L1432.44 952.7C1435.83 950.488 1436.63 946.169 1434.23 943.047C1434.19 943.002 1434.16 942.957 1434.12 942.912L1400.68 890.91C1398.59 887.757 1394.32 886.478 1390.62 887.893L1348.84 902.985C1340.15 896.8 1330.6 891.73 1320.44 887.915L1314.56 847.973C1313.51 844.49 1310.12 842.045 1306.2 841.947H1239.36C1235.44 842.052 1232.05 844.49 1231 847.973L1224.29 887.9C1214.22 891.903 1204.69 896.966 1195.88 902.992L1154.1 887.9C1150.41 886.35 1146.03 887.659 1144.04 890.917L1110.62 942.904C1109.03 946.184 1109.69 950.021 1112.3 952.692L1148.25 977.549C1148.25 982.823 1147.41 987.337 1147.41 992.611C1147.41 997.885 1148.25 1002.4 1148.25 1007.67L1113.14 1032.55C1109.76 1034.76 1108.96 1039.08 1111.36 1042.2C1111.4 1042.24 1111.43 1042.29 1111.46 1042.33L1144.91 1094.32C1147 1097.47 1151.26 1098.75 1154.96 1097.34L1196.76 1082.27C1205.45 1088.45 1215 1093.53 1225.17 1097.35L1231.87 1137.28C1232.64 1140.93 1236.2 1143.49 1240.23 1143.31H1307.1C1311.02 1143.2 1314.4 1140.76 1315.45 1137.28L1322.16 1097.35C1332.22 1093.35 1341.74 1088.29 1350.54 1082.26L1392.34 1097.33C1396.03 1098.88 1400.4 1097.57 1402.4 1094.31L1435.84 1042.33C1437.42 1039.05 1436.77 1035.21 1434.16 1032.54L1397.35 1007.69L1397.34 1007.68ZM1272.79 1045.36C1241.19 1044.7 1216.17 1020.54 1216.89 991.415C1217.61 962.292 1243.81 939.218 1275.41 939.887C1306.49 940.542 1331.32 963.955 1331.32 992.619C1331.16 1021.9 1305.28 1045.52 1273.52 1045.37C1273.28 1045.37 1273.04 1045.37 1272.8 1045.36H1272.79Z" fill="#96B2EC"/>
<path d="M862.973 1212.1C1325.32 1212.1 1700.12 1187.15 1700.12 1156.38C1700.12 1125.61 1325.32 1100.66 862.973 1100.66C400.629 1100.66 25.8256 1125.61 25.8256 1156.38C25.8256 1187.15 400.629 1212.1 862.973 1212.1Z" fill="#BACAEE"/>
<path d="M543.069 1125.74L510.071 1064.74L520.687 1059.06L559.959 1124.64L543.069 1125.74Z" fill="#241F20"/>
<path d="M334.602 1127.35L316.23 1126.87L377.945 1060.48L389.869 1067.72L334.602 1127.35Z" fill="#241F20"/>
<path d="M426.117 732.489C397.942 737.883 343.081 765.547 321.557 785.213C315.448 790.795 309.196 795.212 299.814 807.384C289.025 821.378 285.768 836.703 284.639 846.604C281.336 866.022 282.563 888.931 284.639 903.158C288.491 929.542 293.72 945.944 303.094 977.715C307.789 993.62 315.53 1006.6 320.631 1018.39C322.482 1022.67 323.528 1026.1 326.808 1029.42C359.174 1062.16 380.488 1067.55 413.072 1076.8C418.112 1078.23 416.976 1078.57 422.213 1078.83C451.2 1080.26 493.309 1075.81 536.757 1061C554.452 1054.97 569.92 1047.81 583.139 1040.57C587.841 1032.28 594.492 1019.28 600.029 1002.52C612.631 964.383 580.28 903.827 580.28 903.827C580.28 903.827 589.195 833.227 573.276 804.947C561.095 783.324 535.831 748.19 491.12 734.716C461.944 725.921 436.402 730.518 426.117 732.489Z" fill="#F7735A"/>
<path d="M400.334 902.142C406.752 888.637 434.032 897.485 451.637 898.087C466.977 898.614 492.512 892.414 499.162 905.543C518.783 910.109 534.018 915.948 544.438 920.537C558.785 926.849 563.036 930.362 565.331 932.484C568.498 935.411 578.497 945.432 583.101 969.793C585.546 982.733 585.9 996.697 578.73 1034.1C575.864 1049.04 571.553 1069.05 565.022 1092.59C564.511 1094.43 563.269 1096.03 561.531 1096.83C560.117 1097.5 559.147 1097.26 557.506 1096.86C551.774 1095.47 548.704 1083.27 548.704 1083.27C548.704 1083.27 548.388 1084.21 535.508 1027.88C532.153 1013.22 531.423 1006 526.563 995.049C520.777 982.011 516.135 978.542 512.938 976.902C507.701 974.216 505.407 975.947 489.946 976.451C482.897 976.677 472.116 976.067 450.553 974.833C442.014 974.344 441.217 974.209 440.021 973.878C427.426 970.387 420.369 959.192 415.509 951.473C409.498 941.941 406.963 933.47 404.886 926.33C402.05 916.602 400.876 908.176 400.342 902.15L400.334 902.142Z" fill="#87B0F3"/>
<path d="M491.571 899.877C485.989 897.161 497.236 902.774 528.278 902.774C542.949 902.774 568.874 901.879 584.681 902.774C591.407 903.15 597.177 901.156 606.649 907.002C614.707 911.983 623.494 920.431 636.021 940.512C646.087 956.649 651.941 975.766 654.747 1002.31C657.553 1028.85 657.282 1034.09 656.093 1046.25C654.98 1057.67 653.317 1085.59 646.23 1091.76C645.124 1092.72 642.386 1094.64 639.136 1094.67C634.351 1094.71 629.664 1083.95 628.227 1079.73C622.674 1063.41 612.194 1035.3 610.592 1031.1C591.708 981.582 594.251 982.003 586.81 965.136C577.082 943.077 554.527 923.328 536.426 918.927C477.69 904.632 491.579 899.877 491.579 899.877H491.571Z" fill="#6493DE"/>
<path d="M441.969 695.293C438.93 708.602 435.89 721.918 432.851 735.227C435.875 738.131 442.466 743.526 452.419 745.151C462.448 746.791 476.757 744.737 481.746 736.544C483.152 734.234 483.213 730.548 483.28 723.265C483.386 711.905 483.431 706.232 481.482 702.974C476.577 694.796 460.206 692.502 441.969 695.293Z" fill="#FFAE94"/>
<path d="M549.599 645.774C550.954 659.97 551.774 664.725 545.71 685.791C538.63 710.362 526.578 716.584 526.578 716.584C526.578 716.584 512.998 729.299 488.84 726.176C478.443 724.83 471.107 718.969 461.884 712.16C455.519 707.458 451.351 703.245 447.89 699.724C433.686 685.249 426.11 677.523 425.982 667.96C425.854 658.105 433.708 651.085 445.535 640.515C459.416 628.109 470.483 618.215 487.418 615.785C511.598 612.317 544.747 594.983 549.584 645.774H549.599Z" fill="#FFAE94"/>
<path d="M455.662 583.412C478.864 568.553 495.897 559.096 519.092 544.245C519.98 543.673 527.736 538.64 531.445 539.618C534.718 540.476 535.26 541.491 535.899 544.591C537.803 553.807 523.914 559.217 524.464 560.217C524.862 560.939 525.855 562.113 551.397 548.262C568.438 539.024 570.657 536.925 578.211 535.412C582.567 534.54 600.352 530.989 615.617 541.807C618.875 544.109 624.33 547.984 627.294 554.65C637.601 577.837 606.514 609.699 602.745 613.566C595.462 621.029 581.416 635.429 557.995 640.003C555.528 640.485 527.947 645.473 502.969 630.734C493.279 625.016 489.487 623.685 489.487 623.685C489.487 623.685 488.095 627.597 495.092 633.977C499.629 638.115 501.321 640.221 503.488 643.216C510.44 652.823 499.35 651.537 499.35 651.537C499.35 651.537 486.32 650.882 467.188 640.424C466.42 640.003 462.403 638.829 462.403 638.829L462.839 639.838C463.268 640.823 463.885 641.726 464.712 642.411C466.789 644.126 467.699 648.053 468.489 650.483C470.017 655.185 468.828 660.55 469.362 667.516C469.633 671.113 468.414 686.167 465.525 690.869C464.968 691.727 463.78 691.892 462.99 691.253C461.5 690.041 459.258 682.623 459.243 681.292C459.205 678.177 459.642 679.291 457.392 674.814C454.481 669.021 448.01 663.123 440.464 663.454C438.742 663.529 435.446 663.679 433.475 665.974C428.788 671.444 434.017 686.235 441.811 689.259C441.826 689.259 441.841 689.267 441.856 689.274C449.553 693.577 448.891 690.741 447.71 694.458C447.123 696.309 447.363 695.27 447.123 696.309C447.025 696.737 445.595 702.538 444.181 707.248C442.646 712.348 442.195 712.815 441.638 712.98C441.33 713.071 439.216 713.853 436.801 709.903C428.562 696.421 424.139 679.494 420.956 670.751C417.082 660.121 414.441 652.658 414.178 642.335C413.847 628.906 417.736 618.185 420.655 611.858C418.015 615.123 412.838 620.367 405.142 621.827C402.78 622.278 397.829 623.218 395.7 620.623C393.255 617.651 396.031 611.881 397.047 609.766C400.237 603.138 405.864 599.053 410.559 596.608C412.417 595.645 412.966 593.253 411.74 591.56C410.98 590.522 410.168 589.348 409.317 588.046C407.181 584.759 406.105 583.118 405.909 581.779C404.924 575.234 415.562 565.702 420.595 568.057C422.175 568.794 423.191 570.69 423.702 573.24C424.259 576.009 427.81 576.912 429.653 574.775C435.499 568.011 441.202 563.64 445.377 560.894C456.903 553.318 461.681 554.868 463.065 555.432C466.074 556.651 468.249 559.367 469.099 561.978C471.198 568.478 466.074 577.619 455.662 583.412Z" fill="#232F40"/>
<path d="M528.102 683.371C529.944 683.203 531.18 680.252 530.863 676.78C530.547 673.309 528.797 670.631 526.956 670.798C525.115 670.966 523.878 673.917 524.195 677.389C524.512 680.86 526.261 683.538 528.102 683.371Z" fill="#241F20"/>
<path d="M499.44 682.593C501.286 682.495 502.635 679.595 502.452 676.113C502.269 672.632 500.623 669.889 498.777 669.986C496.93 670.083 495.582 672.984 495.765 676.465C495.948 679.946 497.593 682.69 499.44 682.593Z" fill="#241F20"/>
<path d="M507.724 690.38C506.994 690.38 506.355 689.846 506.242 689.109C506.114 688.288 506.678 687.521 507.498 687.393L513.622 686.438L510.688 667.622C510.56 666.802 511.125 666.034 511.945 665.906C512.765 665.778 513.532 666.343 513.66 667.163L517.053 688.951L507.95 690.372C507.874 690.388 507.792 690.388 507.716 690.388L507.724 690.38Z" fill="#D27B64"/>
<path d="M494.949 693.57C496.273 693.134 498.199 701.319 505.136 703.403C512.178 705.517 518.776 699.656 519.528 700.642C519.528 700.642 512.569 712.913 503.18 709.76C494.174 706.736 494.949 693.57 494.949 693.57Z" fill="white"/>
<path d="M449.377 680.256C451.181 678.158 450.57 674.673 448.012 672.474C445.453 670.274 441.917 670.192 440.113 672.29C438.309 674.388 438.92 677.873 441.478 680.072C444.036 682.272 447.573 682.354 449.377 680.256Z" fill="#D27B64"/>
<path d="M461.395 709.475C461.748 709.617 463.795 713.643 469.121 717.472C474.47 721.316 483.1 724.973 483.198 725.041C483.198 725.041 483.401 726.989 483.318 728.96C483.235 730.931 482.866 732.985 482.866 733C469.919 720.271 460.131 708.955 461.387 709.475H461.395Z" fill="#F09A80"/>
<path d="M401.802 862.117C403.261 854.933 442.353 869.934 458.889 887.539C461.003 889.788 459.822 893.152 460.612 902.059L398.717 900.397L387.996 898.606C385.024 897.884 377.907 894.22 376.237 892.587C373.498 890.503 371.926 887.577 369.744 884.327C364.305 876.216 364.666 863.223 364.907 845.385C365.057 834.085 364.252 838.268 365.035 820.55C366.329 791.382 373.1 784.453 375.439 781.519C380.194 775.56 386.544 773.13 390.351 770.979C400.839 765.058 405.586 763.395 412.522 760.408C412.522 760.408 424.251 756.263 430.579 756.105C430.639 756.105 432.843 752.524 432.843 752.524C432.911 745.083 431.873 733.722 431.948 726.282C433.874 728.358 441.894 738.771 459.145 737.702C472.815 736.86 486.568 730.849 484.454 730.849C487.93 730.849 481.053 747.874 477.788 753.103C483.055 753.667 494.4 755.698 503.676 764.659C513.916 774.552 516.06 787.523 517.181 794.324C518.467 802.095 516.918 801.591 518.234 811.011C518.911 815.848 520.867 827.066 526.999 839.75C533.484 853.172 537.321 853.097 538.359 859.281C539.571 866.466 536.245 877.638 514.194 894.37C510.086 890.044 504.451 882.927 501.194 872.868C499.945 869.016 499.749 869.069 498.703 859.319C496.19 835.876 498.891 821.995 498.395 821.987C498.395 821.987 495.905 853.172 500.261 887.622C500.261 887.622 508.371 900.682 507.664 903.18C507.664 903.18 501.495 905.829 398.702 900.389" fill="#F6CC7E"/>
<path opacity="0.45" d="M375.424 781.511C377.222 777.298 388.162 771.768 399.123 766.291C420.219 755.759 430.564 756.105 430.564 756.105C431.609 757.226 403.479 778.683 404.487 787.545C405.751 798.732 404.367 803.036 403.728 809.273C400.357 842.248 402.832 853.059 401.794 862.125C401.689 863.065 401.854 865.879 401.531 865.322C404.608 860.342 417.45 865.435 421.475 866.526C429.533 868.7 438.32 872.041 450.32 880.505C455.624 884.244 451.103 881.152 458.874 887.547C462.463 890.503 461.402 896.913 460.936 900.615C460.808 901.6 460.718 901.849 460.59 902.067C458.761 905.272 450.29 902.473 445.234 902.511C437.899 902.571 425.395 901.548 416.63 901.277C410.01 901.074 396.911 900.705 387.966 898.614C383.858 897.651 377.012 893.753 375.477 891.993C370.481 887.953 365.832 878.518 365.223 870.295C364.034 854.293 365.245 835.838 364.824 823.327C364.914 816.728 365.945 807.016 367.231 800.591C368.631 793.632 371.144 785.145 375.424 781.519V781.511Z" fill="#E6AF5B"/>
<path opacity="0.45" d="M506.61 767.804C507.205 769.985 501.103 778.487 498.402 821.995C497.65 833.002 497.673 842.195 497.883 848.951C498.282 862.095 499.388 866.835 500.238 869.806C502.533 877.856 505.858 883.258 508.062 886.779C511.042 891.534 514.209 894.378 514.209 894.378C514.209 894.378 543.739 872.861 538.058 857.874C533.228 845.13 539.307 857.927 535.907 853.819C531.648 848.688 525.427 839.171 520.22 821.017C518.039 813.937 518.136 807.61 517.745 799.507C516.812 780.308 506.618 767.804 506.618 767.804H506.61Z" fill="#E6AF5B"/>
<path d="M543.573 1105C544.416 1102.27 545.86 1098.95 548.102 1099.59C551.601 1100.57 552.496 1105.28 560.207 1104.3C564.624 1103.73 567.332 1096.28 571.538 1096.29C571.538 1096.29 591.204 1097.86 614.18 1119.86C615.181 1120.81 616.776 1122.5 616.738 1124.68C616.701 1126.88 615.226 1129.33 613.481 1129.71C607.266 1131.06 604.295 1130.64 601.624 1130.59C592.806 1130.43 575.442 1128.95 567.603 1128.42C563.646 1128.15 563.382 1127.33 561.795 1126.36C558.101 1124.1 558.612 1128.55 554.083 1128.46C545.273 1128.44 543.731 1128.21 543.069 1125.74C541.655 1120.49 541.369 1112.15 543.573 1105Z" fill="#D6553C"/>
<path d="M630.07 1105C630.913 1102.27 632.357 1098.95 634.599 1099.59C638.097 1100.57 638.993 1105.28 646.704 1104.3C651.121 1103.73 653.829 1096.28 658.035 1096.29C658.035 1096.29 677.701 1097.86 700.677 1119.86C701.678 1120.81 703.273 1122.5 703.235 1124.68C703.198 1126.88 701.723 1129.33 699.978 1129.71C693.763 1131.06 690.792 1130.64 688.121 1130.59C679.303 1130.43 661.939 1128.95 654.1 1128.42C650.142 1128.15 649.879 1127.33 648.292 1126.36C644.598 1124.1 645.109 1128.55 640.58 1128.46C631.77 1128.44 630.228 1128.21 629.566 1125.74C628.151 1120.49 627.866 1112.15 630.07 1105Z" fill="#D6553C"/>
<path d="M506.016 897.936C506.701 896.417 501.321 886.463 496.95 883.695C491.571 882.205 478.962 879.557 465.247 884.921C460.409 886.817 454.165 886.561 453.623 891.534C452.983 898.094 454.842 900.547 456.083 901.585C459.461 904.407 457.467 903.504 471.499 899.133C479.925 896.507 482.31 895.476 486.169 894.37C487.223 894.431 505.369 899.373 506.016 897.936Z" fill="#FFAE94"/>
<path d="M458.656 903.278C458.724 903.278 458.784 903.278 458.852 903.278C475.674 904.038 493.083 904.467 511.042 904.489C537.803 904.527 563.39 903.669 587.698 902.142C588.834 902.074 589.865 901.442 590.489 900.449C604.821 877.601 619.146 854.759 633.478 831.911C635.013 829.466 633.41 826.208 630.619 826.088C610.298 825.2 589.97 824.32 569.649 823.432C568.483 823.379 567.362 823.928 566.647 824.899C549.035 848.823 531.43 872.748 513.818 896.672C513.103 897.643 511.99 898.185 510.816 898.14C494.445 897.455 478.074 896.763 461.703 896.078C461.628 896.078 461.553 896.071 461.485 896.063C460.59 895.965 458.468 895.852 457.573 895.98C456.06 896.191 455.368 896.8 454.94 898.621C454.375 901.014 456.128 903.323 458.483 903.293H458.656V903.278Z" fill="#1E4180"/>
<path d="M546.154 1105.11C545.619 1106.21 545.251 1107.37 544.987 1108.55C544.702 1109.72 544.491 1110.92 544.355 1112.11C544.115 1114.49 543.949 1116.99 545.01 1119.08C545.514 1120.13 546.266 1121.06 547.086 1121.93C547.876 1122.78 548.9 1123.41 549.976 1123.91C552.15 1124.87 554.617 1125.23 557.032 1124.85C555.859 1125.2 554.617 1125.29 553.384 1125.24C552.15 1125.15 550.923 1124.89 549.757 1124.44C548.591 1123.99 547.493 1123.34 546.582 1122.43C545.717 1121.54 544.912 1120.56 544.34 1119.41C543.784 1118.26 543.513 1116.98 543.498 1115.73C543.475 1114.48 543.596 1113.25 543.799 1112.04C544.235 1109.63 544.837 1107.19 546.161 1105.11H546.154Z" fill="white"/>
<path d="M633.741 1104.24C632.839 1106.74 631.861 1109.23 631.409 1111.82C630.958 1114.39 631.063 1117.09 632.131 1119.43C633.14 1121.8 635.344 1123.51 637.864 1124.09C639.121 1124.41 640.445 1124.48 641.739 1124.32C643.048 1124.2 644.327 1123.82 645.538 1123.26C643.266 1124.66 640.422 1125.2 637.736 1124.66C636.39 1124.4 635.088 1123.85 633.99 1122.99C632.884 1122.14 632.011 1121.01 631.447 1119.74C630.303 1117.21 630.243 1114.33 630.837 1111.7C631.131 1110.38 631.567 1109.1 632.056 1107.86C632.575 1106.63 633.132 1105.42 633.734 1104.23L633.741 1104.24Z" fill="white"/>
<path d="M423.266 619.72C422.243 623.331 421.483 627.01 421.046 630.719C420.61 634.428 420.452 638.167 420.648 641.899C420.791 645.631 421.295 649.34 422.07 652.996L422.709 655.727L423.469 658.428L424.327 661.106L425.29 663.747L424.139 661.174L423.123 658.541L422.258 655.855L421.513 653.124C420.618 649.46 420.106 645.706 419.903 641.937C419.76 638.167 419.918 634.376 420.475 630.651C421.031 626.92 421.942 623.248 423.258 619.727L423.266 619.72Z" fill="white"/>
<path d="M491.488 566.958C493.384 565.574 495.28 564.182 497.116 562.73C498.967 561.293 500.78 559.796 502.653 558.366C504.504 556.914 506.475 555.613 508.378 554.236C510.274 552.852 512.155 551.445 514.074 550.098L516.948 548.067C517.437 547.728 517.888 547.39 518.4 547.051C518.904 546.728 519.408 546.419 519.934 546.133C522.018 544.997 524.245 544.042 526.638 543.726C527.232 543.643 527.834 543.62 528.443 543.636C529.053 543.666 529.685 543.778 530.249 544.109C530.813 544.433 531.22 545.005 531.393 545.607C531.566 546.216 531.566 546.833 531.498 547.435C531.34 548.631 530.934 549.76 530.437 550.828C529.926 551.881 529.384 552.957 528.541 553.792C528.955 553.371 529.226 552.844 529.504 552.333C529.783 551.813 530.031 551.287 530.249 550.745C530.685 549.662 531.031 548.533 531.122 547.39C531.167 546.825 531.144 546.246 530.979 545.727C530.813 545.208 530.475 544.772 530.008 544.516C529.06 543.997 527.834 544.14 526.721 544.29C524.456 544.674 522.289 545.584 520.273 546.72C519.25 547.284 518.324 547.946 517.361 548.639L514.487 550.685C512.599 552.084 510.673 553.431 508.762 554.8C506.836 556.139 504.895 557.449 502.992 558.825C501.088 560.187 499.23 561.632 497.334 563.016C495.416 564.378 493.475 565.709 491.488 566.958Z" fill="white"/>
<path d="M431.654 578.048C434.107 574.963 436.838 572.097 439.75 569.433C442.669 566.77 445.806 564.347 449.071 562.121C450.719 561.037 452.397 559.946 454.262 559.186C456.106 558.427 458.212 558.013 460.221 558.457C461.222 558.66 462.185 559.066 463.012 559.668C463.832 560.277 464.517 561.097 464.855 562.068C465.194 563.031 465.269 564.077 465.028 565.055C464.81 566.04 464.223 566.936 463.388 567.47C464.171 566.868 464.675 565.965 464.833 565.017C465.006 564.069 464.878 563.076 464.509 562.203C464.156 561.316 463.509 560.593 462.734 560.052C461.951 559.525 461.041 559.179 460.108 559.021C458.227 558.69 456.294 559.051 454.526 559.811C452.75 560.563 451.11 561.647 449.493 562.737C446.22 564.897 443.113 567.297 440.133 569.855C437.154 572.413 434.34 575.159 431.654 578.04V578.048Z" fill="white"/>
<path d="M576.42 860.853C580.205 861.944 582.823 864.314 583.206 867.045C583.568 869.618 581.965 872.635 578.369 874.034C575.691 875.08 572.952 874.817 572.192 874.727C569.25 874.373 567.475 873.169 566.918 872.748C567.347 872.808 572.659 873.448 576.33 870.852C579.708 868.475 579.37 865.014 578.233 862.968C577.699 861.997 576.954 861.29 576.42 860.853Z" fill="url(#paint0_linear_6_260)"/>
<path d="M349.062 991.475C350.808 988.18 352.937 985.095 355.262 982.131L357.09 979.987C357.699 979.272 358.354 978.595 358.993 977.896C359.625 977.196 360.325 976.564 361.002 975.902C361.672 975.232 362.379 974.608 363.078 973.976C364.47 972.689 365.96 971.523 367.472 970.38C368.992 969.244 370.542 968.145 372.144 967.129C372.949 966.625 373.769 966.144 374.589 965.67L376.997 964.323C378.727 963.345 380.54 962.48 382.399 961.848C389.862 959.237 397.679 958.801 405.187 959.546C412.703 960.298 420.068 962.179 426.817 965.346L426.727 965.632C419.7 963.481 412.41 962.209 405.074 961.871C397.761 961.57 390.306 962.172 383.414 964.662C381.699 965.294 380.029 966.023 378.434 966.911C376.801 967.784 375.191 968.642 373.619 969.59C370.466 971.463 367.457 973.577 364.583 975.864C361.717 978.151 358.993 980.627 356.435 983.26C353.892 985.908 351.522 988.722 349.303 991.648L349.062 991.468V991.475Z" fill="#FF2626"/>
<path d="M741.861 706.601C767.087 707.421 792.32 708.248 817.546 709.068L820.292 730.375C838.379 757.865 842.833 787.116 842.833 787.116C845.368 817.406 847.685 840.676 847.317 847.289C846.451 862.81 843.976 880.166 835.264 917.332C821.752 974.924 832.172 932.785 809.429 1027.59C806.69 1050.84 801.619 1062.26 795.397 1079.33C790.424 1093.24 785.482 1093.21 785.482 1093.21C780.554 1092.85 777.778 1077.23 776.28 1054.75C775.152 1037.8 773.038 1020.91 771.909 1003.96C769.908 973.788 768.764 971.598 766.447 942.227C761.828 883.642 762.655 844.994 761.534 844.994C760.556 844.994 760.76 874.328 757.713 922.561C755.124 963.578 751.98 989.82 750.61 1000.68C747.255 1027.31 743.937 1045.69 741.868 1056.39C739.649 1067.92 737.512 1077.62 735.857 1084.8C732.84 1093.1 730.794 1089.98 728.755 1088.08C722.48 1082.23 716.304 1057.51 707.027 1018.62C693.177 960.577 692.68 962.924 687.113 917.821C684.743 898.659 681.184 870.604 685.051 835.71C687.805 810.89 691.198 782.956 709.089 753.223C718.41 737.732 728.762 726.583 736.399 719.353C738.219 715.102 740.04 710.851 741.861 706.601Z" fill="#56BAA2"/>
<path d="M776.25 710.881V727.629V710.881Z" fill="#52BDA4"/>
<path d="M776.25 710.881V727.629" stroke="#241F20" stroke-width="5" stroke-miterlimit="10" stroke-linecap="round"/>
<path d="M785.03 722.761C787.062 722.761 788.709 720.774 788.709 718.322C788.709 715.871 787.062 713.883 785.03 713.883C782.998 713.883 781.351 715.871 781.351 718.322C781.351 720.774 782.998 722.761 785.03 722.761Z" fill="#241F20"/>
<path d="M860.716 609.255C862.988 609.21 868.074 609.044 873.701 606.388C886.153 600.513 890.358 587.58 890.764 586.263C893.036 578.898 894.24 565.852 887.055 558.818C881.744 553.627 882.09 554.221 879.78 552.039C879.78 552.039 882.729 549.805 890.072 545.426C900.748 539.054 903.885 526.106 905.142 520.96C908.572 506.846 907.12 484.893 893.947 475.767C882.255 467.664 870.451 467.536 870.451 467.536C877.802 467.175 884.354 451.744 884.317 434.854C884.287 420.304 867.773 404.542 854.569 405.077C847.467 405.362 849.205 405.791 845.917 403.782C845.917 403.782 850.454 394.687 845.315 381.31C833.3 350.035 802.778 350.396 783.804 360.779C772.647 366.888 785.09 388.472 782.924 388.352C781.487 388.277 783.187 379.407 778.658 372.906C771.036 361.967 747.834 360.681 731.824 369.069C725.204 372.538 717.116 376.254 704.973 393.694C694.674 408.492 694.064 420.394 696.517 425.239C698.661 429.467 704.244 431.296 703.98 431.792C703.649 432.417 696.321 426.669 688.535 427.557C679.063 428.632 673.164 439.037 670.854 443.107C670.087 444.462 661.315 460.419 667.898 473.073C668.116 473.495 668.673 474.533 669.598 475.812C676.189 484.968 687.541 487.195 687.639 486.946C687.76 486.638 672.856 475.624 662.504 478.934C641.302 485.72 634.817 553.943 656.665 566.635C666.995 572.631 683.983 566.409 683.99 566.492C683.998 566.559 669.726 565.175 661.006 573.142C653.295 580.192 651.873 592.756 654.19 602.055C657.628 615.883 670.08 625.445 681.801 628.364C697.074 632.164 705.304 623.226 730.967 614.672C741.605 611.121 763.348 603.876 789.394 604.681C807.051 605.23 836.378 609.782 860.731 609.27L860.716 609.255Z" fill="#F97842"/>
<path d="M769.803 547.435C771.676 558.75 760.263 574.557 757.6 574.933C755.501 575.234 756.622 574.895 756.193 575.332C755.606 575.934 760.812 578.996 766.741 582.795C772.895 586.737 779.214 586.549 788.145 586.286C796.315 586.045 800.513 584.367 803.177 582.93C805.817 581.501 807.668 580.959 807.803 579.658C808.443 573.639 799.558 558.908 798.58 549.699C798.031 544.508 806.344 543.846 805.953 542.552C805.516 541.115 798.076 541.303 769.795 547.427L769.803 547.435Z" fill="#FFAE94"/>
<path d="M878.441 594.667C877.365 596.066 882.383 600.136 882.707 607.366C882.94 612.505 882.368 613.731 883.075 617.207C883.82 620.886 886.378 620.826 888.184 625.22C889.154 627.567 887.454 628.71 888.139 630.501C889.019 632.803 894.519 635.256 903.878 636.414C906.443 634.383 909.761 631.494 913.222 627.635C915.893 624.655 922.852 615.108 925.621 603.838C927.93 594.449 930.097 589.273 930.488 584.39C930.503 584.217 930.533 584.014 930.578 583.781C930.819 582.366 928.848 581.764 928.269 583.081C926.869 585.947 919.767 603.078 918.263 602.544C917.939 602.431 931.391 579.033 927.343 577.536C924.597 576.52 913.831 600.016 913.831 600.016C913.831 600.016 925.274 573.624 920.896 572.924C918.285 572.51 910.024 598.015 909.912 598.045C909.769 598.083 917.021 573.278 914.305 573.436C912.251 573.556 910.814 578.288 907.752 586.233C903.667 596.841 900.139 596.901 895 609.127C894.646 609.97 895.677 609.308 895 609.127C894.353 608.954 892.924 609.834 891.78 605.523C891.509 604.515 890.599 601.506 888.079 598.88C884.67 595.329 879.336 593.523 878.449 594.667H878.441Z" fill="#F9A98D"/>
<path d="M814.815 601.837C814.815 601.837 827.131 619.735 826.274 632.472C825.657 641.628 824.129 642.523 822.753 655.14C822.068 661.415 824.325 669.269 828.485 684.692C828.485 684.692 832.526 699.656 843.502 723.686C845.187 727.373 848.069 733.497 851.823 733.459C854.607 733.437 856.239 729.69 857.473 728.712C870.564 718.33 871.121 718.713 883.61 700.13C887.424 694.458 894.631 682.676 899.492 666.094C903.065 653.884 904.179 643.14 904.442 635.203C901.29 632.45 896.151 628.921 890.531 629.726C888.417 630.027 881.473 631.622 871.843 653.794C863.372 673.294 861.385 689.018 860.4 688.868C859.489 688.732 862.145 675.378 861.641 658.405C861.468 652.627 860.558 633.932 852.177 611.911C846.677 597.458 842.276 586.338 830.885 578.958C824.129 574.579 812.859 570.178 808.646 574.218C805.644 577.1 805.298 578.544 800.724 581.418C794.788 585.15 788.348 584.661 781.562 584.142C772.872 583.48 765.785 582.938 761.309 578.153C760 576.754 757.509 573.481 753.131 572.443C753.131 572.443 751.558 572.066 749.851 572.134C744.735 572.322 719.524 583.427 706.207 615.74C699.654 631.637 698.962 645.42 698.601 654.313C698.059 667.509 699.737 676.988 702.791 694.24C703.01 695.451 705.726 710.452 711.082 722.678C711.549 723.731 712.421 725.725 713.791 728.268C715.912 732.21 717.154 733.647 723.368 742.111C729.236 750.101 731.335 753.201 734.473 758.429C737.008 762.658 746.029 777.11 762.64 790.743C765.74 793.285 767.756 794.692 770.186 794.399C774.542 793.865 777.815 788.192 778.62 783.415C779.53 778.013 777.334 773.469 776.386 771.603C766.884 752.839 740.582 721.166 738.851 716.704C738.392 715.516 738.159 714.304 738.159 714.304C737.723 712.063 737.971 710.279 738.031 709.783C738.445 706.36 737.7 699.656 736.286 686.927C735.436 679.268 735.315 680.291 734.871 675.724L736.007 626.175C735.36 623.354 754.635 599.813 754.635 599.813C754.635 599.813 737.136 620.931 736.007 626.175C730.162 653.357 748.752 689.74 741.853 706.623C740.228 710.595 818.231 709.911 818.231 709.911C813.717 696.797 823.505 658.601 827.598 632.021C828.809 624.181 814.808 601.859 814.808 601.859L814.815 601.837Z" fill="#355388"/>
<path d="M772.654 790.208C774.083 787.786 775.505 785.356 776.935 782.933C778.221 780.751 781.276 780.488 782.908 782.422C784.541 784.348 786.174 786.281 787.814 788.207C788.679 789.23 790.026 789.697 791.342 789.434C791.463 789.411 791.583 789.388 791.703 789.358C793.464 789.005 795.224 789.975 795.864 791.66C799.43 801.05 797.73 815.051 806.562 819.836C819.6 826.885 811.738 828.465 801.266 824.32L777.996 810.71C775.912 802.727 774.731 798.191 772.654 790.208Z" fill="#F9A98D"/>
<path d="M801.469 548.473C801.469 548.473 792.538 555.056 784.503 555.252C777.025 555.44 768.937 548.864 768.937 548.864L801.469 548.473Z" fill="#F09A80"/>
<path d="M783.097 415.925C783.097 415.925 782.72 437.54 763.784 445.297C745.178 452.918 728.68 455.942 724.218 467.31C722.104 472.69 722.525 480.484 722.525 480.484C722.525 480.484 716.74 474.021 712.737 474.984C708.201 476.075 703.958 483.095 703.544 487.864C703.514 488.241 703.371 504.83 709.736 505.597C725.083 507.463 722.601 496.697 722.601 496.697C726.174 498.743 725.648 507.124 728.672 514.505C730.846 519.816 733.833 527.099 738.618 532.824C744.133 539.422 750.528 542.146 757.69 545.193C763.092 547.495 773.339 551.723 787.137 551.024C793.351 550.708 804.23 550.166 814.951 542.582C826.763 534.224 831.058 522.517 832.337 518.861C833.819 514.64 836.099 499.962 836.415 497.359C838.161 495.478 840.184 504.213 844.397 504.92C848.34 505.582 850.318 503.114 851.108 501.196C853.012 496.554 856.209 490.392 853.757 484.479C852.086 480.461 848.061 475.473 844.202 475.955C840.403 476.436 838.928 481.951 837.483 481.507C835.445 480.883 840.087 470.5 835.813 462.548C833.195 457.68 827.741 455.514 816.944 451.383C802.612 445.899 801.183 447.922 796.21 444.597C784.233 436.577 783.089 415.925 783.089 415.925H783.097Z" fill="#F9A98D"/>
<path d="M771.691 520.922C771.759 520.832 776.438 526.174 782.427 526.903C790.123 527.836 792.922 521.667 792.681 522.374C792.681 522.374 792.29 525.338 792.155 525.782C792.072 526.053 790.146 534.299 781.961 533.358C773.497 532.388 772.06 524.601 771.796 522.826C771.766 522.638 771.631 521.005 771.691 520.922Z" fill="white" stroke="white" stroke-miterlimit="10" stroke-linecap="round"/>
<path d="M783.142 510.224C779.937 510.224 777.808 509.411 776.769 507.801C775.453 505.755 776.371 503.19 776.815 501.956L776.852 501.85C778.929 496.02 779.861 488.346 779.636 479.024C779.621 478.4 780.11 477.881 780.734 477.866C781.366 477.836 781.878 478.347 781.893 478.964C782.126 488.556 781.148 496.509 778.981 502.603L778.944 502.716C778.598 503.679 777.958 505.469 778.673 506.583C779.756 508.275 783.939 508.433 790.138 507.019C790.748 506.876 791.35 507.26 791.493 507.869C791.628 508.478 791.252 509.08 790.643 509.223C787.708 509.893 785.211 510.224 783.149 510.224H783.142Z" fill="#D27B64"/>
<path d="M761.377 489.023C763.454 489.023 765.138 487.339 765.138 485.261C765.138 483.183 763.454 481.499 761.377 481.499C759.299 481.499 757.615 483.183 757.615 485.261C757.615 487.339 759.299 489.023 761.377 489.023Z" fill="#241F20"/>
<path d="M802.755 489.023C804.833 489.023 806.517 487.339 806.517 485.261C806.517 483.183 804.833 481.499 802.755 481.499C800.678 481.499 798.994 483.183 798.994 485.261C798.994 487.339 800.678 489.023 802.755 489.023Z" fill="#241F20"/>
<path d="M751.588 638.16C757.05 639.845 762.49 641.598 768.005 643.05C773.519 644.495 779.109 645.691 784.774 646.172C790.432 646.722 796.15 646.609 801.807 645.939C804.636 645.608 807.442 645.127 810.226 644.495C813.01 643.885 815.756 643.103 818.472 642.207C815.816 643.261 813.077 644.118 810.316 644.856C807.54 645.563 804.726 646.12 801.89 646.518C796.21 647.308 790.432 647.421 784.714 646.925C778.996 646.368 773.361 645.179 767.862 643.607C762.354 642.034 756.96 640.139 751.596 638.16H751.588Z" fill="white"/>
<path d="M713.189 1130.94C724.053 1130.21 740.063 1131.68 750.926 1130.94C751.573 1129.58 753.8 1117.53 748.361 1107.42C745.382 1101.87 738.422 1094.76 730.741 1095.97C724.715 1096.92 718.433 1102.53 716.484 1105.67C710.044 1116.05 712.256 1126.84 713.181 1130.94H713.189Z" fill="#6493DE"/>
<path d="M763.491 1130.36C774.354 1129.62 789.845 1131.1 800.709 1130.36C801.356 1129 803.583 1118.12 798.143 1108.01C795.164 1102.46 788.205 1095.35 780.524 1096.56C774.497 1097.5 768.486 1101.22 766.537 1104.36C760.097 1114.74 762.565 1126.25 763.491 1130.36Z" fill="#6493DE"/>
<path d="M713.336 496.469C715.667 496.346 717.428 493.777 717.267 490.732C717.106 487.686 715.086 485.317 712.754 485.44C710.422 485.563 708.662 488.132 708.822 491.177C708.983 494.223 711.004 496.592 713.336 496.469Z" fill="#DF7969"/>
<path d="M845.79 496.472C848.122 496.349 849.882 493.78 849.721 490.735C849.56 487.689 847.54 485.32 845.208 485.443C842.876 485.566 841.116 488.135 841.276 491.18C841.437 494.226 843.458 496.595 845.79 496.472Z" fill="#DF7969"/>
<path d="M713.068 759.814C710.21 770.053 707.343 780.285 704.665 790.57C701.956 800.847 699.413 811.169 697.277 821.574C696.186 826.772 695.23 832.001 694.35 837.237C693.477 842.474 692.725 847.733 692.266 853.014C691.341 863.585 691.386 874.223 691.852 884.823C692.394 895.424 693.274 906.017 694.523 916.565C695.825 927.105 697.277 937.638 699.135 948.095C700.948 958.56 702.964 969.003 705.312 979.363C707.606 989.737 710.112 1000.07 713.076 1010.28C706.974 989.91 702.325 969.123 698.646 948.178C696.75 937.713 695.253 927.18 693.906 916.632C692.612 906.077 691.687 895.476 691.115 884.853C690.694 874.223 690.686 863.562 691.657 852.954C692.146 847.65 692.913 842.383 693.808 837.14C694.711 831.896 695.682 826.667 696.795 821.468C698.985 811.063 701.558 800.741 704.319 790.472C707.11 780.217 710.089 770.008 713.076 759.806L713.068 759.814Z" fill="white"/>
<path d="M705.259 425.051C705.094 420.943 705.462 416.813 706.305 412.78C707.2 408.763 708.532 404.828 710.352 401.119C713.971 393.694 719.493 387.193 726.265 382.431C729.658 380.061 733.322 378.082 737.181 376.6C741.033 375.103 745.058 374.035 749.166 373.561C753.259 373.064 757.449 373.004 761.497 373.892C763.513 374.343 765.492 374.998 767.305 375.998C769.118 376.976 770.766 378.278 772.082 379.858C770.705 378.331 769.028 377.104 767.215 376.171C765.394 375.239 763.423 374.644 761.422 374.253C757.412 373.448 753.274 373.568 749.241 374.133C747.217 374.396 745.224 374.84 743.237 375.321C741.274 375.871 739.318 376.457 737.429 377.232C733.63 378.714 730.026 380.693 726.701 383.04C723.345 385.358 720.321 388.134 717.65 391.211C714.964 394.288 712.76 397.749 710.879 401.367C707.185 408.65 705.237 416.828 705.267 425.044L705.259 425.051Z" fill="white"/>
<path d="M848.912 409.801C851.778 409.756 854.644 410.26 857.383 411.163C860.114 412.088 862.695 413.435 865.042 415.12C869.721 418.498 873.415 423.321 875.236 428.851C877.004 434.395 876.854 440.467 875.048 445.951C874.138 448.697 872.836 451.3 871.173 453.655C869.488 455.988 867.457 458.079 865.117 459.727C867.359 457.944 869.308 455.822 870.872 453.445C872.452 451.082 873.679 448.487 874.499 445.778C876.154 440.369 876.297 434.455 874.521 429.084C872.806 423.697 869.217 418.987 864.703 415.587C860.189 412.179 854.644 410.042 848.919 409.809L848.912 409.801Z" fill="white"/>
<path d="M716.04 1128.41C715.988 1126.07 716.025 1123.72 716.296 1121.38C716.559 1119.04 717.116 1116.7 718.117 1114.54C719.14 1112.37 720.675 1110.44 722.631 1109.04C723.609 1108.35 724.677 1107.8 725.813 1107.44C726.957 1107.11 728.153 1106.96 729.319 1107.1C726.964 1107.13 724.752 1108.09 722.977 1109.51C721.194 1110.94 719.757 1112.79 718.801 1114.85C717.823 1116.93 717.259 1119.18 716.868 1121.47C716.484 1123.75 716.304 1126.08 716.04 1128.41Z" fill="white"/>
<path d="M766.635 1129.67C766.695 1126.93 766.996 1124.19 767.658 1121.5C768.313 1118.82 769.389 1116.21 770.991 1113.93C772.609 1111.65 774.806 1109.77 777.341 1108.61C778.613 1108.03 779.959 1107.63 781.336 1107.46C782.713 1107.32 784.12 1107.4 785.436 1107.79C782.728 1107.33 779.967 1107.91 777.589 1109.13C775.212 1110.37 773.136 1112.18 771.601 1114.36C770.043 1116.55 768.983 1119.07 768.208 1121.66C767.816 1122.96 767.516 1124.29 767.275 1125.63C767.004 1126.96 766.823 1128.31 766.628 1129.67L766.635 1129.67Z" fill="white"/>
<path d="M1411.73 1140.05C1425.98 1140.02 1440.23 1139.99 1454.48 1139.97C1454.58 1139.28 1456.15 1126.32 1446.62 1118.74C1437.71 1111.66 1423.78 1113.02 1416.46 1121.34C1409.94 1128.78 1411.48 1138.58 1411.74 1140.05H1411.73Z" fill="#56BAA2"/>
<path d="M1252.6 1104.82C1257.17 1107.07 1259.42 1110.37 1265.58 1111.04C1270.19 1111.54 1274.14 1110.26 1276.69 1109.13C1278.6 1110.6 1279.49 1112.1 1279.95 1113.08C1282.19 1117.88 1281.92 1124.2 1278.86 1131.78C1277.85 1134.28 1276.85 1137.61 1275.98 1137.75C1266.69 1139.24 1255.65 1137.75 1253.15 1136.99C1251.66 1135.78 1250.78 1134.63 1250.26 1133.77C1250.04 1133.4 1249.89 1133.11 1249.56 1133C1248.22 1132.52 1245.94 1135.82 1245.61 1136.26C1243.76 1138.71 1236.03 1140.21 1211.14 1136.57C1208.96 1135.89 1203.08 1133.71 1199.74 1127.86C1198.72 1126.08 1196.85 1122.8 1197.87 1119.73C1199.26 1115.6 1205.09 1114.29 1210.44 1113C1242.35 1105.31 1245.39 1101.28 1252.62 1104.82L1252.6 1104.82Z" fill="#56BAA2"/>
<path d="M1201.99 1119.8C1201.71 1120.78 1201.66 1121.82 1201.83 1122.8C1202.01 1123.79 1202.36 1124.75 1202.87 1125.6C1203.38 1126.46 1204 1127.26 1204.74 1127.93C1205.48 1128.59 1206.31 1129.16 1207.19 1129.63C1208.96 1130.56 1210.89 1131.18 1212.85 1131.66C1214.82 1132.13 1216.81 1132.54 1218.81 1132.86C1222.8 1133.56 1226.85 1133.93 1230.91 1134.07C1232.94 1134.14 1234.97 1134.14 1237 1134.07C1239.03 1134.01 1241.06 1133.87 1243.09 1133.7C1239.07 1134.36 1234.98 1134.68 1230.9 1134.65C1226.81 1134.63 1222.73 1134.25 1218.69 1133.6C1216.67 1133.25 1214.67 1132.83 1212.68 1132.33C1210.71 1131.81 1208.71 1131.19 1206.91 1130.14C1206.01 1129.62 1205.17 1129 1204.42 1128.28C1203.66 1127.55 1203.04 1126.71 1202.56 1125.79C1201.6 1123.96 1201.25 1121.74 1201.99 1119.81V1119.8Z" fill="white"/>
<path d="M1415.79 1135.03C1415.53 1133.72 1415.58 1132.36 1415.85 1131.03C1416.14 1129.72 1416.67 1128.45 1417.35 1127.29C1418.73 1124.95 1420.78 1123.04 1423.14 1121.71C1425.51 1120.39 1428.13 1119.59 1430.79 1119.25C1433.45 1118.91 1436.15 1118.95 1438.77 1119.36C1437.44 1119.31 1436.12 1119.3 1434.8 1119.39C1433.48 1119.45 1432.17 1119.59 1430.88 1119.82C1428.3 1120.29 1425.77 1121.08 1423.51 1122.37C1421.24 1123.62 1419.27 1125.42 1417.84 1127.6C1416.42 1129.76 1415.59 1132.37 1415.8 1135.04L1415.79 1135.03Z" fill="white"/>
<path d="M1335.03 734.106C1378.81 736.341 1422.59 738.583 1466.37 740.817C1470.92 760.792 1482.07 788.245 1486.36 821.656C1490.95 857.302 1491.51 882.295 1486.65 914.721C1482.39 943.145 1482.61 930.069 1472.49 999.638C1468.01 1030.46 1463.11 1051.44 1451.58 1079.48C1443.74 1098.53 1442.33 1101.12 1438.36 1105.25C1431.85 1112.02 1427.52 1104.69 1424.75 1099.5C1422.18 1091.62 1418.63 1079.57 1415.76 1064.6C1410.54 1037.45 1411.64 1022.1 1410.1 974.224C1409.28 948.833 1408.81 934.335 1407.11 914.217C1404.89 887.915 1399.69 841.985 1395.19 842.12C1393.15 842.18 1392.67 851.622 1388.72 876.389C1386.15 892.474 1382.68 914.24 1378.18 931.107C1373.17 949.863 1365.57 964.331 1350.37 993.251C1339.99 1013.01 1328.79 1034.1 1310.01 1059.43C1297.15 1076.77 1284.99 1090.36 1275.7 1100.02C1271.74 1102.17 1266.39 1104.28 1262.87 1102.08C1258.01 1099.07 1258.63 1089.13 1262.26 1070.48C1267.48 1043.76 1274.15 1023.49 1276.69 1015.68C1279.86 1006.95 1276.69 1015.68 1292.11 965.354C1304.31 925.517 1303.45 916.346 1304.99 899.712C1306.82 879.986 1309.51 864.525 1312.74 846.168C1316.46 825.004 1319.46 814.396 1324.66 792.481C1327.89 778.856 1332.01 758.986 1335.02 734.084L1335.03 734.106Z" fill="#E6AF5B"/>
<path d="M1285.62 796.423L1285.65 796.498C1288.18 801.268 1287.04 807.174 1282.87 810.612C1282.17 811.191 1281.52 811.703 1280.92 812.154C1277.98 814.381 1274.83 816.149 1268.53 819.693C1263.51 822.522 1260.98 824.177 1259.89 824.162C1251.17 824.034 1249.39 824.229 1247.66 823.409C1246.65 822.928 1241.54 817.759 1232.34 805.18C1228.26 799.598 1229.7 801.953 1227.2 797.454C1225.32 794.068 1224.5 784.558 1224.75 782.467C1224.91 781.135 1226.52 780.654 1227.2 781.812C1229.7 786.018 1233.33 793.797 1235.14 795.129C1233.53 793.94 1232.49 793.045 1229.11 786.161C1223.46 774.665 1235.98 783.016 1237.84 785.747C1240.72 789.945 1248.55 801.253 1248.55 801.253C1249.36 802.246 1238.71 788.23 1238.93 787.35C1239.36 785.604 1243.67 787.651 1244.49 788.335C1248.71 791.834 1250.69 793.902 1255.18 798.228C1260.31 803.171 1267.25 805.458 1272.53 800.681C1272.68 800.546 1272.84 800.403 1272.99 800.26C1275.26 798.206 1279.01 797.115 1281.18 796.626C1282.17 796.4 1283.19 796.317 1284.2 796.363L1285.62 796.43V796.423Z" fill="#F9A98D"/>
<path d="M1368.19 570.855C1362.67 568.711 1340.34 589.25 1303.79 659.557C1290.11 685.858 1274.84 698.468 1272.03 722.61C1269.44 744.902 1275.88 764.027 1281.65 776.523C1293.44 760.513 1309.29 736.928 1324.45 706.555C1356.87 641.598 1388.63 578.793 1368.19 570.863V570.855Z" fill="#98DACC"/>
<path d="M1367.98 566.793C1366.51 567.553 1362.98 573.127 1362.01 574.467C1349.22 592.041 1331.14 626.875 1326.6 674.603C1324.72 694.36 1326.1 711.822 1328.49 725.943C1329.32 730.909 1333.48 734.633 1338.51 734.881C1393 737.552 1415.7 742.006 1425.47 746.099C1430.45 748.19 1437.22 749.973 1450.76 753.539C1460.91 756.218 1470.02 757.632 1472.48 755.992C1479.27 751.485 1472.75 734.324 1472.14 726.312C1468.35 676.62 1475.49 682.503 1464.44 639.176C1452.93 594.012 1441.49 565.476 1422.42 556.771C1422.42 556.771 1379.6 560.796 1367.99 566.785L1367.98 566.793Z" fill="#56BAA2"/>
<path d="M1387.15 602.95C1368.25 625.867 1375.26 694.608 1367.55 702.275C1363.03 706.774 1355.32 717.088 1337.38 735.746C1318.86 754.999 1302.81 770.527 1291.12 781.519C1288.82 783.686 1284.74 787.643 1284.6 790.803C1284.6 790.901 1284.6 797.183 1284.6 797.28C1284.25 806.331 1290.06 810.221 1298.29 806.467C1319.01 797.025 1370.37 768.029 1423.94 717.532C1426.09 715.508 1427.44 712.785 1427.74 709.851L1436.65 623.211C1437.15 618.343 1435.69 614.544 1432.98 610.466C1423.18 595.75 1391.94 597.135 1387.15 602.95H1387.15Z" fill="#98DACC"/>
<path d="M1414.48 547.007L1371.88 554.839C1368.62 555.44 1366.45 558.578 1367.05 561.847C1367.65 565.116 1370.79 567.279 1374.06 566.678L1416.65 558.846C1419.92 558.245 1422.08 555.107 1421.48 551.838C1420.88 548.569 1417.74 546.406 1414.48 547.007Z" fill="#98DACC"/>
<path d="M1223.22 764.749C1224.93 771.122 1226.63 777.494 1228.34 783.866C1259.08 775.598 1278.75 770.264 1278.73 770.159C1278.72 770.083 1280.2 769.835 1280.45 769.692C1281.91 768.849 1274.07 751.034 1275.28 738.966C1276.5 726.808 1273.36 730.495 1294.4 697.618C1301 687.295 1303 680.916 1304.3 673.941C1307.87 654.945 1301.56 638.175 1299.08 631.833C1291.69 612.889 1279.9 602.506 1276.97 600.031C1264.91 589.844 1253.38 585.586 1246.41 583.863C1234.97 581.019 1219.18 580.177 1207.39 582.795C1186.08 587.527 1173.59 603.469 1169.71 608.555C1155.7 626.958 1153.2 647.128 1152.76 651.085C1151.89 658.97 1149.76 678.2 1159.21 696.361C1162.47 702.636 1166.11 710.957 1185.74 727.726C1192.18 733.241 1199.86 737.627 1208.6 743.526C1215.6 748.258 1220.85 755.894 1223.21 764.749H1223.22Z" fill="#F6CC7E"/>
<path d="M1228.09 784.385L1222.86 764.862C1220.5 756.037 1215.38 748.596 1208.43 743.902C1205.8 742.126 1203.27 740.494 1200.84 738.914C1195.29 735.333 1190.06 731.947 1185.53 728.072C1166.93 712.168 1162.61 703.764 1159.45 697.625L1158.91 696.572C1149.38 678.275 1151.5 659.165 1152.41 651.01C1153.2 643.84 1156.45 625.325 1169.44 608.262C1180.07 594.306 1192.81 585.594 1207.32 582.374C1218.32 579.921 1234.07 580.357 1246.49 583.442C1253.91 585.285 1265.25 589.596 1277.21 599.693C1281.58 603.387 1292.51 613.904 1299.44 631.675C1301.65 637.332 1308.37 654.538 1304.7 674.062C1303.34 681.284 1301.2 687.785 1294.73 697.896C1276.54 726.304 1276.48 727.283 1275.99 734.896C1275.92 736.077 1275.84 737.424 1275.67 739.049C1274.93 746.467 1277.67 756.18 1279.49 762.605C1280.97 767.819 1281.43 769.647 1280.65 770.098C1280.5 770.189 1280.19 770.264 1279.57 770.399C1279.33 770.452 1279 770.527 1278.93 770.557L1278.91 770.52C1278.55 770.715 1277.63 770.979 1275.3 771.618C1272.98 772.265 1269.56 773.198 1265.18 774.387C1256.43 776.764 1243.82 780.165 1228.45 784.303L1228.1 784.4L1228.09 784.385ZM1223.59 764.644L1228.59 783.347C1260.54 774.755 1277.33 770.189 1278.51 769.782C1278.67 769.692 1278.94 769.632 1279.36 769.534C1279.67 769.466 1280.16 769.354 1280.26 769.301C1280.46 768.857 1279.59 765.787 1278.75 762.823C1276.91 756.323 1274.14 746.505 1274.9 738.899C1275.05 737.289 1275.14 735.957 1275.22 734.783C1275.72 726.959 1275.78 725.958 1294.09 697.354C1300.51 687.318 1302.56 681.134 1303.94 673.836C1307.56 654.591 1300.92 637.588 1298.74 631.998C1291.88 614.431 1281.09 604.041 1276.76 600.385C1272.59 596.864 1267.76 593.719 1267.49 593.546C1261.02 589.446 1255.64 587.309 1253.31 586.451C1253.31 586.451 1249.98 585.195 1246.36 584.292C1234.02 581.23 1218.4 580.794 1207.49 583.224C1193.14 586.414 1180.53 595.036 1170.01 608.856C1157.15 625.754 1153.93 644.073 1153.15 651.168C1152.26 659.241 1150.16 678.132 1159.55 696.158L1160.1 697.219C1163.22 703.29 1167.5 711.604 1185.97 727.388C1190.45 731.225 1195.43 734.437 1201.19 738.161C1203.63 739.741 1206.16 741.381 1208.8 743.164C1215.92 747.972 1221.18 755.601 1223.6 764.651L1223.59 764.644Z" fill="#F6CC7E"/>
<path d="M1278.66 602.055C1276.89 603.65 1297.65 632.984 1295.96 665.553C1294.61 691.599 1275.11 712.664 1257.48 721.331C1236.15 731.812 1212.57 726.59 1207.06 725.221C1197.1 722.746 1174.22 717.592 1175.26 718.683C1195.28 739.914 1198.57 733.685 1212.5 747.159C1217.27 751.771 1220.52 757.226 1222.5 763.613C1225.78 774.161 1228.08 784.385 1228.08 784.385L1235.77 782.316C1235.77 782.316 1254.46 777.75 1280.06 770.264C1284.49 769.767 1275.27 745.09 1276.05 733.587C1276.99 719.789 1281.77 721.881 1291.18 706.646C1296.2 698.498 1306.03 682.578 1306.4 665.071C1307.12 631.998 1280.55 600.34 1278.65 602.055H1278.66Z" fill="#F4C177"/>
<path d="M1246.75 779.044C1238.32 752.14 1228.81 721.354 1220.37 694.458C1218.94 689.899 1214.24 687.032 1209.61 688.191C1208.04 688.582 1206.87 689.304 1206.26 690.327C1204.29 693.675 1208.69 699.687 1212.6 702.726C1221.62 709.753 1234.72 706.217 1240.57 704.637C1245.69 703.26 1261.39 698.174 1269.44 683.451C1271.48 679.719 1273.93 675.077 1273.01 669.239C1271.86 661.889 1265.63 654.486 1257.26 653.335C1256.34 653.207 1249.5 652.372 1244.14 656.863C1237.42 662.491 1237.76 672.504 1238.3 683.737C1238.81 694.39 1240.71 701.763 1244.42 715.817C1249.02 733.264 1253.52 745.519 1254.98 749.431C1258.48 758.783 1261.89 766.615 1264.64 772.574" stroke="#241F20" stroke-width="3" stroke-miterlimit="10"/>
<path d="M1226.65 781.888C1226.5 783.761 1227.62 797.19 1237.34 806.579C1245.58 814.539 1258.68 817.398 1269.59 812.192C1281.73 806.391 1284.59 793.744 1284.89 792.338C1287.38 780.36 1281.61 768.895 1280.52 767.352C1263.32 771.611 1243.85 777.637 1226.65 781.895V781.888Z" fill="#241F20"/>
<path d="M1467.03 779.029L1470.06 792.729L1472.6 806.534L1474.6 820.43L1476.1 834.386C1477.78 853.029 1478.15 871.8 1477.22 890.503C1476.22 909.207 1473.91 927.827 1470.32 946.207L1467.38 959.937L1463.97 973.554L1460.02 987.021L1455.59 1000.34L1459.84 986.969L1463.61 973.457L1466.96 959.839L1469.83 946.109C1473.33 927.744 1475.55 909.131 1476.47 890.466C1477.48 871.8 1477.19 853.059 1475.61 834.431L1474.17 820.483L1472.24 806.594L1469.88 792.766L1467.03 779.029Z" fill="white"/>
<path d="M1090.4 567.793L1135.45 603.146" stroke="#241F20" stroke-width="14" stroke-miterlimit="10" stroke-linecap="round"/>
<path d="M1165.72 508.546L1184.73 564.235" stroke="#241F20" stroke-width="14" stroke-miterlimit="10" stroke-linecap="round"/>
<path d="M1268.87 503.709L1252.09 561.519" stroke="#241F20" stroke-width="14" stroke-miterlimit="10" stroke-linecap="round"/>
<path d="M1283.49 458.365L1284.01 461.743C1284.86 471.508 1287.63 488.075 1297.86 505.304C1305.79 518.635 1316.47 536.594 1337.32 540.656C1355.89 544.268 1372.89 534.517 1382.86 524.992C1387.57 520.486 1396.75 513.843 1395.06 506.244C1393.92 501.128 1387.77 495.478 1389.22 490.294C1390.07 487.262 1394.05 490.926 1394.29 490.761C1397 488.73 1396.17 488.73 1398.5 487.541C1403.92 484.78 1403.93 471.11 1403.14 465.565C1402.54 461.307 1401.88 456.687 1398.48 454.957C1394.07 452.707 1386.75 456.206 1383.89 461.194C1382.35 463.872 1383.43 458.583 1380.8 469.718C1380 473.141 1376.27 482.184 1376.27 482.184C1376.27 482.184 1372.42 480.002 1372.29 479.867C1369.84 477.256 1369.8 473.803 1369.91 466.987C1370.13 453.242 1370.53 453.738 1370.1 451.789C1368.05 442.385 1360.28 437.314 1359.87 437.059C1354.06 433.395 1348.17 433.56 1344.7 433.658C1340.22 433.786 1336.97 434.877 1330.48 437.051C1325.09 438.857 1321.21 440.64 1315.68 443.205C1310.78 445.477 1307.29 447.275 1302.19 449.924C1298.27 451.955 1283.48 458.38 1283.48 458.38L1284 461.758L1283.48 458.38L1283.49 458.365Z" fill="#F9A98D"/>
<path d="M1361.69 538.377L1369.16 556.057L1414.49 546.946L1397.63 510.781L1391.59 506.387L1361.69 538.377Z" fill="#F9A98D"/>
<path d="M1287.38 459.193C1317.26 442.806 1327.82 439.135 1335.07 437.232C1347.56 433.959 1352.18 435.434 1354.24 436.291C1363.12 439.97 1369.77 449.194 1369.27 455.702C1368.23 469.304 1369.54 477.158 1371.38 481.695C1372.84 485.276 1378.03 484.885 1378.99 481.138C1379 481.101 1379.01 481.056 1379.02 481.018C1379.61 478.686 1380.03 476.308 1380.28 473.916C1380.56 471.185 1380.61 470.591 1380.8 469.71C1381.33 467.25 1383.15 458.771 1389.58 456.507C1392.89 455.341 1397.33 455.845 1400.01 458.388C1403.16 461.382 1402.53 466.355 1401.27 476.308C1400.39 483.305 1399.19 484.689 1398.64 485.246C1395.17 488.752 1390.21 486.834 1388.48 489.873C1387.51 491.573 1388.42 493.311 1390.52 499.022C1394.57 509.983 1394.51 512.458 1395.75 512.549C1396.33 512.594 1399.12 512.255 1404.26 489.106C1408.57 469.688 1411.05 458.508 1410.71 442.22C1410.14 415.135 1402.3 399.374 1397.6 399.231C1396.89 399.208 1394.42 399.494 1393.8 398.32C1393.33 397.455 1394.26 396.522 1394.42 394.845C1394.61 392.866 1393.59 391.294 1392.75 390.015C1385.26 378.519 1370.12 373.042 1370.12 373.042C1366.69 371.8 1358.05 368.956 1341.12 368.437C1323.37 367.896 1307.8 370.243 1295.74 372.109C1281.34 374.343 1277.57 375.81 1268.96 375.081C1262.23 374.509 1256.32 372.921 1251.42 371.078C1246.52 369.235 1241.4 371.304 1239.12 375.795C1237.38 379.233 1235.6 383.243 1234.01 387.788C1230.97 396.492 1227.5 406.423 1229.01 419.311C1230.37 430.919 1235.09 439.082 1237.65 443.423C1241.42 449.781 1244.97 455.784 1252.49 460.148C1254.85 461.517 1262.29 465.452 1271.85 464.662C1278.47 464.113 1283.07 461.555 1287.37 459.193H1287.38Z" fill="#141462"/>
<path d="M1334.93 510.72C1335.52 509.329 1344.52 515.611 1353.71 511.706C1362.21 508.102 1364.52 498.495 1366.03 499.164C1367.92 500 1367.7 516.423 1358.09 521.201C1347.29 526.565 1334.18 512.496 1334.93 510.713V510.72Z" fill="white"/>
<path d="M1337.21 502.054C1333.01 501.85 1330.7 500.955 1330.02 499.315C1329.49 498.028 1330.22 496.802 1330.46 496.403C1331.71 494.282 1332.56 487.428 1329.66 466.603C1329.58 466.054 1330.01 465.55 1330.62 465.482C1331.23 465.422 1331.79 465.813 1331.87 466.37C1334.29 483.749 1334.48 493.876 1332.45 497.329C1332.3 497.577 1331.93 498.194 1332.11 498.63C1332.24 498.939 1333.32 500.459 1342.3 499.992C1342.9 499.954 1343.44 500.383 1343.49 500.94C1343.52 501.497 1343.07 501.971 1342.45 502.001C1340.45 502.106 1338.72 502.121 1337.21 502.046V502.054Z" fill="#D27B64"/>
<path d="M1395.94 471.927C1396.47 468.847 1395.56 466.122 1393.92 465.841C1392.28 465.56 1390.52 467.829 1389.99 470.909C1389.47 473.989 1390.37 476.713 1392.01 476.994C1393.65 477.275 1395.41 475.007 1395.94 471.927Z" fill="#DF7969"/>
<path d="M1335.55 372.297L1339.39 371.748L1343.26 371.492L1347.15 371.552L1351.03 371.883C1356.18 372.515 1361.23 373.914 1366.03 375.908C1370.8 377.962 1375.33 380.618 1379.37 383.875L1382.31 386.426L1385.05 389.179L1387.57 392.136L1389.84 395.273C1386.73 391.143 1383.08 387.457 1379 384.319C1374.93 381.182 1370.47 378.564 1365.73 376.585C1361.02 374.554 1356.03 373.185 1350.94 372.44C1345.86 371.695 1340.67 371.642 1335.54 372.282L1335.55 372.297Z" fill="white"/>
<path d="M1400.27 407.349C1401.38 410.599 1402.31 413.901 1403.13 417.242C1403.95 420.575 1404.61 423.953 1405.21 427.338C1405.74 430.731 1406.21 434.14 1406.51 437.563C1406.65 439.278 1406.77 440.986 1406.87 442.701C1406.93 444.417 1407 446.132 1407 447.847C1406.92 446.99 1406.83 446.139 1406.77 445.289L1406.51 442.731C1406.34 441.023 1406.15 439.323 1405.94 437.623C1405.52 434.222 1405.06 430.837 1404.47 427.466C1403.95 424.088 1403.28 420.725 1402.58 417.377C1401.88 414.029 1401.09 410.697 1400.27 407.356V407.349Z" fill="white"/>
<path d="M974.101 785.145C972.288 794.482 961.056 804.616 961.056 804.616C961.056 804.616 933.543 814.035 928.005 813.584C927.148 813.516 923.837 812.666 921.814 814.487C918.94 817.075 921.814 814.487 921.979 827.984C922.145 841.481 958.889 831.715 960.304 831.324C990.984 822.965 997.635 811.718 1001.07 802.863" fill="#F09A80"/>
<path d="M971.604 789.185C972.017 789.87 972.363 790.494 973.326 791.465C975.982 794.128 978.029 795.061 981.978 797.837C983.43 798.86 984.401 799.47 985.605 800.546C987.087 801.877 987.945 803.073 990.909 805.88C994.099 808.904 1002.57 814.765 1006.32 809.784C1007.42 808.34 1012.33 803.171 1013.52 799.846C1021.06 778.916 1030.09 779.969 1029.87 770.038C1029.67 761.71 1024.15 754.856 1019.06 748.521C1015.59 744.218 1014.58 740.253 1011.97 738.146C999.35 753.02 984.235 768.691 971.611 783.565C971.002 785.175 970.513 787.372 971.611 789.185H971.604Z" fill="#F56A34"/>
<path d="M1010.18 740.411C1005.98 746.083 995.769 769.97 1002.83 782.978C1013.52 802.667 1028.12 815.818 1028.12 815.818C1028.12 815.818 1034.89 828.999 1042.81 844.385L1105.72 842.684C1103.07 830.444 1100.41 818.203 1097.74 805.962C1091.26 776.298 1084.71 746.64 1078.08 717.005C1071.89 717.096 1030.48 712.965 1010.18 740.396V740.411Z" fill="#F97842"/>
<path d="M1058.97 809.453C1058.49 810.77 1059.37 814.201 1060.24 817.27C1043.96 815.389 1027.5 815.502 1011.27 817.782C1009.22 818.068 1009.22 817.857 992.872 820.385C978.555 822.597 970.558 810.71 958.686 813.682C950.786 815.66 936.078 821.777 939.78 827.051C939.78 827.051 943.895 826.426 943.902 826.426C954.503 827.555 974.282 829.917 990.307 831.55C992.173 831.196 994.069 832.061 995.024 833.709C995.972 835.349 995.791 837.418 994.565 838.862V838.87C1022.59 838.787 1050.62 838.704 1078.65 838.622C1080.84 837.982 1084.79 836.515 1088.53 833.062C1090.68 831.083 1092.15 829.022 1093.14 827.329C1093.73 826.328 1094.09 825.215 1094.23 824.064C1094.51 821.702 1094.57 818.391 1093.6 814.637C1091.91 808.129 1088.28 798.183 1086.51 796.521C1073.33 794.595 1061.34 802.976 1058.98 809.453H1058.97Z" fill="#F9A98D"/>
<path d="M951.779 870.378C944.903 873.711 929.646 886.576 929.074 887.268C924.334 893.024 924.462 898.102 924.567 901.841C925.839 947.177 943.225 1001.71 943.225 1001.71C948.341 1017.75 949.778 1019.47 954.653 1032.5C960.04 1046.91 965.013 1055.34 970.957 1067.62C971.807 1069.38 977.073 1078.9 986.034 1088.25C988.727 1091.06 994.129 1090.81 995.521 1089.45C998.274 1086.75 999.869 1080.17 998.568 1061.2C995.43 1015.62 997.447 1017.81 994.889 999.473C992.925 985.374 992.684 979.031 987.651 952.662C977.209 897.906 970.152 874.689 959.228 872.282C953.924 871.108 959.145 866.797 951.779 870.378Z" fill="#F09A80"/>
<path d="M959.288 884.582C956.143 885.29 949.605 886.599 944.173 889.315C939.336 891.737 937.914 892.459 935.491 895.92C929.826 904.015 922.25 914.631 915.471 926.292C901.794 949.841 891.314 968.604 886.386 980.446C880.239 995.222 869.3 1021.79 861.95 1052.26C858.391 1067.02 857.255 1081.28 856.179 1092.12C855.705 1096.9 859.663 1101.11 864.432 1100.61C865.252 1100.52 866.005 1100.29 866.622 1099.88C879.028 1091.47 911.16 1061.99 933.407 1017.93C941.006 1002.88 951.576 981.815 956.278 956.386C965.367 954.159 1016.17 931.89 1021.77 924.991" fill="#F9A98D"/>
<path d="M894.91 108.443C899.108 109.722 903.276 111.098 907.414 112.558" stroke="white" stroke-width="3" stroke-miterlimit="10" stroke-linecap="round"/>
<path d="M931.429 122.173C1007.83 156.487 1070.49 221.196 1101.07 299.297C1112.32 328.044 1119.02 361.847 1103.96 388.796C1094.86 405.084 1079.08 416.422 1063.28 426.36C1048.34 435.749 1032.52 444.544 1015.11 447.366C997.702 450.194 978.262 446.072 966.48 432.951C956.038 421.327 953.224 403.429 959.589 389.157C965.954 374.885 981.151 365.029 996.777 365.029C1014.58 365.029 1030.77 376.991 1040.1 392.159C1049.42 407.326 1052.92 425.307 1055.01 442.987C1069.37 564.949 1019.07 692.344 926.591 772.807" stroke="white" stroke-width="3" stroke-miterlimit="10" stroke-linecap="round"/>
<path d="M916.683 781.12C913.275 783.874 909.806 786.575 906.293 789.2" stroke="white" stroke-width="3" stroke-miterlimit="10" stroke-linecap="round"/>
<path d="M970.957 672.783C953.412 695.722 952.472 700.582 947.845 704.629C946.205 706.059 942.503 707.797 942.345 708.165C941.623 709.806 970.122 734.008 998.395 728.464C1015.47 725.116 1026.28 712.115 1030.78 705.901C1029.8 700.89 1028.84 695.88 1027.87 690.869C1021.67 691.855 1010.67 692.78 997.665 689.312C984.168 685.715 975.847 676.83 970.964 672.79L970.957 672.783Z" fill="#3D2D2F"/>
<path d="M1041.41 772.574C1046.15 788.651 1047.37 787.575 1050.61 800.463C1052.56 808.265 1054.52 809.935 1057.4 809.641C1061.31 809.243 1067.19 806.369 1077.2 803.292C1086.99 800.282 1088.62 802.705 1092.11 799.38C1095.79 795.889 1092.37 790.299 1087.7 766.246C1085.36 754.179 1084.86 748.581 1080.05 741.622C1077.5 737.913 1074.54 733.64 1069.32 731.857C1057.63 727.869 1048.7 739.245 1046.06 751.5C1045.35 754.826 1038.68 763.312 1041.41 772.566L1041.41 772.574Z" fill="#F56A34"/>
<path d="M1030.44 710.626C1032.8 709.745 1036.7 708.301 1041.56 706.51C1050.96 703.057 1052.06 702.696 1053.1 701.643C1058.55 696.09 1052.37 681.397 1048.67 673.791C1040.88 675.852 1033.09 677.906 1025.29 679.968C1027.01 690.184 1028.73 700.409 1030.44 710.626Z" fill="#CE746C"/>
<path d="M949.447 629.373C946.588 642.554 956.444 655.374 960.198 661.656C962.26 665.101 965.367 670.195 972.89 676.642C994.001 694.736 1020.48 692.156 1025.11 691.621C1025.19 691.614 1025.28 691.599 1025.37 691.591C1040.39 689.793 1052.89 678.952 1056.7 664.311C1060 651.619 1062.75 635.647 1062.75 635.647L1070.91 635.489C1073.14 635.444 1075.23 634.323 1076.43 632.442C1079.91 626.95 1081.54 614.995 1076.61 608.352C1072.39 602.664 1060.81 596.089 1056.05 598.827C1050.46 602.047 1046.63 615.183 1051.16 619.065C1051.16 619.065 1046.56 603.477 1030.2 599.459C1012.58 595.126 980.692 596.849 975.004 599.617C974.357 599.933 974.929 599.271 970.686 596.879C968.677 595.743 959.491 574.64 962.591 598.045C964.577 613.039 951.554 619.667 949.447 629.395V629.373Z" fill="#F9A98D"/>
<path d="M963.275 592.35C973.003 605.403 1007.37 600.264 1020.39 601.604C1034.09 603.01 1041.48 621.112 1050.97 619.539C1046.58 608.721 1052.45 601.965 1057.81 599.888C1063.36 597.736 1069.51 601.16 1073.17 605.929C1079.58 614.273 1077.72 628.078 1071.51 632.344C1066.76 635.617 1055.53 630.945 1058.3 635.925C1061.66 641.937 1055.9 670.488 1042.53 691.238C1025.11 718.292 993.775 728.095 999.034 732.308C1004.71 736.852 1031.96 741.148 1046.61 737.717C1053.7 736.055 1057.42 733.835 1059.83 730.638C1065.04 723.709 1065.06 717.156 1067.37 716.524C1070.53 715.651 1074.77 725.695 1072.58 734.889C1071.9 737.755 1088.01 734.941 1103.75 722.61C1114.3 714.342 1104.25 693.525 1107.27 691.84C1108.66 691.065 1106.21 694.578 1120.03 711.604C1120.52 712.221 1121.33 712.221 1121.82 711.589C1129.85 701.146 1137.93 686.836 1145.96 676.492C1146.79 675.423 1146.87 674.009 1147.54 672.835C1151.91 665.199 1155.94 640.477 1134.43 617.786C1109.53 591.53 1079.08 588.505 1075.4 588.513C1067.22 578.439 1060.53 565.86 1052.35 555.793C1036.47 535.721 1022.38 532.779 1016.88 532.155C1006.24 530.943 985.198 533.509 959.702 545.351C940.427 554.304 935.439 564.761 931.391 570.577C918.165 589.536 926.471 616.545 929.029 624.873C930.217 628.741 931.429 637.445 938.47 644.231C948.763 654.155 957.377 660.61 958.957 659.699C959.995 659.105 956.271 656.005 954.706 649.806C953.246 644.006 952.268 642.004 951.749 639.913C949.425 630.509 954.036 625.242 961.169 612.385C966.729 602.363 960.01 587.994 963.26 592.35H963.275Z" fill="#3D2D2F"/>
<path d="M992.556 671.383C991.977 671.496 991.383 671.255 991.044 670.766C989.524 668.577 988.434 664.53 987.275 660.241C986.417 657.066 985.537 653.801 984.567 651.77C984.251 651.1 984.446 650.303 985.056 649.881C985.808 649.355 986.861 649.618 987.26 650.438C988.358 652.733 989.246 656.02 990.171 659.459C990.879 662.084 991.601 664.763 992.376 666.764C992.699 667.592 993.655 667.945 994.452 667.561C995.302 667.148 996.145 666.644 997.01 666.124C998.379 665.312 999.779 664.469 1001.32 663.92C1002.19 663.604 1003.14 664.138 1003.31 665.049C1003.46 665.793 1003.01 666.501 1002.3 666.764C1001.04 667.223 999.816 667.953 998.545 668.713C996.694 669.818 994.783 670.955 992.541 671.383H992.556Z" fill="#D27B64"/>
<path d="M958.979 678.99C972.271 678.99 983.047 668.214 983.047 654.922C983.047 641.63 972.271 630.855 958.979 630.855C945.687 630.855 934.912 641.63 934.912 654.922C934.912 668.214 945.687 678.99 958.979 678.99Z" stroke="#241F20" stroke-width="5" stroke-miterlimit="10"/>
<path d="M1005.18 651.567C1018.47 651.567 1029.25 640.791 1029.25 627.499C1029.25 614.207 1018.47 603.432 1005.18 603.432C991.889 603.432 981.113 614.207 981.113 627.499C981.113 640.791 991.889 651.567 1005.18 651.567Z" stroke="#241F20" stroke-width="5" stroke-miterlimit="10"/>
<path d="M983.972 638.89L979.736 642.742" stroke="#241F20" stroke-width="5" stroke-miterlimit="10"/>
<path d="M1066.36 624.216C1068.88 623.483 1070.03 619.796 1068.93 615.981C1067.82 612.166 1064.87 609.668 1062.35 610.402C1059.82 611.135 1058.67 614.822 1059.78 618.637C1060.89 622.451 1063.83 624.949 1066.36 624.216Z" fill="#DF7969"/>
<path d="M986.545 621.751C991.676 617.425 996.807 613.099 1001.93 608.773L986.545 621.751Z" fill="#DF7969"/>
<path d="M998.94 608.93L986.605 617.228C985.399 618.04 985.078 619.676 985.89 620.882C986.702 622.089 988.338 622.409 989.545 621.597L1001.88 613.299C1003.09 612.488 1003.41 610.851 1002.59 609.645C1001.78 608.438 1000.15 608.118 998.94 608.93Z" fill="#241F20"/>
<path d="M1012.03 684.376C1009.42 684.376 1006.8 683.692 1004.43 682.33C1003.44 681.758 1003.18 680.449 1003.88 679.546C1004.44 678.816 1005.46 678.583 1006.26 679.035C1010.21 681.307 1015.23 681.074 1018.72 678.305C1021.72 675.92 1023.18 672.083 1022.66 668.208C1022.54 667.291 1023.14 666.433 1024.03 666.192C1025.13 665.891 1026.25 666.636 1026.39 667.772C1027.05 672.933 1025.07 678.049 1021.05 681.254C1018.42 683.338 1015.24 684.384 1012.03 684.384V684.376Z" fill="#C45F4B"/>
<path d="M968.523 660.893C970.704 659.634 971.288 656.562 969.827 654.033C968.367 651.503 965.415 650.473 963.234 651.732C961.054 652.991 960.47 656.062 961.93 658.592C963.391 661.121 966.343 662.152 968.523 660.893Z" fill="#2F1809"/>
<path d="M1004.58 634.756C1006.76 633.497 1007.35 630.425 1005.89 627.896C1004.43 625.366 1001.47 624.336 999.293 625.595C997.113 626.854 996.529 629.925 997.989 632.455C999.45 634.984 1002.4 636.015 1004.58 634.756Z" fill="#2F1809"/>
<path d="M958.819 636.932L946.088 643.283C944.787 643.932 944.258 645.513 944.907 646.814C945.556 648.116 947.138 648.644 948.439 647.995L961.17 641.645C962.471 640.996 963 639.415 962.351 638.113C961.702 636.812 960.121 636.283 958.819 636.932Z" fill="#241F20"/>
<path d="M1040.26 636.414C1031.51 636.414 1024.16 634.722 1019.77 633.706L1019.16 633.563C982.821 625.242 965.758 593.787 962.703 587.565L964.727 586.572C967.699 592.628 984.318 623.271 1019.66 631.366L1020.27 631.509C1028.76 633.465 1048.63 638.039 1067.68 627.161C1074.89 623.038 1081.06 617.267 1086 610.007L1087.87 611.279C1082.73 618.825 1076.31 624.828 1068.8 629.124C1058.94 634.752 1048.91 636.414 1040.26 636.414Z" fill="#3D2D2F"/>
<path d="M1042.81 844.392C1027.95 846.912 1028.46 850.99 1014.08 854.714C990.111 860.921 980.113 851.818 956.436 859.83C950.275 861.914 943.082 865.646 940.103 867.339C941.833 869.197 944.662 871.13 947.002 874.99C955.075 888.291 958.972 900.908 964.78 912.065C971.408 924.795 973.071 924.923 980.271 932.018C981 932.74 985.131 935.779 989.351 940.91C989.351 940.91 989.69 941.948 990.435 942.197C1007.39 947.764 1083.81 942.626 1083.81 942.626C1103.08 937.893 1112.8 935.426 1117.3 930.445C1140.08 905.219 1107.91 846.604 1105.71 842.692C1092.44 843.399 1081.51 843.557 1073.81 843.55C1057.11 843.55 1051.98 842.827 1042.8 844.385L1042.81 844.392Z" fill="#0D075F"/>
<path d="M848.738 1100.7C850.514 1100.14 851.379 1105.71 855.999 1106.83C858.331 1107.4 863.657 1103.98 866.712 1105.69C871.444 1111.7 870.91 1118.7 869.007 1124.66C868.299 1126.84 867.585 1129.02 866.877 1131.2C865.222 1135.33 847.941 1131.98 846.715 1130.38C846.564 1129.48 846.233 1128.37 845.436 1128.08C844.239 1127.63 842.757 1133.31 842.306 1133.4C836.37 1134.59 809.963 1135.73 804.478 1130.52C801.905 1128.09 806.359 1120.81 810.504 1119.65C818.103 1117.53 820.232 1119.38 828.673 1115.43C831.871 1113.93 831.021 1113.52 840.222 1107.58C844.909 1104.56 847.001 1101.25 848.731 1100.71L848.738 1100.7Z" fill="#241F20"/>
<path d="M986.342 1093.61C987.531 1092.41 990.585 1096.44 994.768 1095.34C996.16 1094.98 999.26 1094.36 1001.16 1091.31C1002.09 1089.83 1002.55 1087.38 1004.13 1088.11C1008.57 1090.15 1009.57 1093.7 1013.88 1099.9C1014.22 1100.4 1014.46 1100.96 1014.59 1101.56C1015.04 1103.6 1015.9 1106.39 1016.21 1108.15C1016.55 1111.3 1005.55 1116.08 1000.12 1117.57C998.801 1117.93 997.409 1117.7 996.265 1116.96C995.964 1116.76 995.634 1116.65 995.302 1116.7C995.302 1116.7 996.965 1119.37 996.732 1119.71C993.474 1124.47 991.082 1130.41 986.786 1132.1C973.898 1137.18 959.529 1132.18 959.529 1132.18C956.429 1131.35 958.227 1125.14 961.063 1122.44C966.262 1117.5 965.765 1118.49 971.468 1112.33C973.642 1109.98 974.779 1109.01 980.948 1101.38C984.13 1097.44 985.183 1094.78 986.342 1093.61V1093.61Z" fill="#241F20"/>
<path d="M782.871 763.764C792.869 789.366 802.876 814.968 812.874 840.578C880.382 840.864 938.734 840.924 1006.26 840.044C1011.77 839.968 1008.25 836.417 1008.25 836.417L1007.21 835.846C1007.21 835.846 997.454 830.88 990.728 830.602C973.657 829.902 939.193 827.637 939.193 827.637C930.819 808.393 920.098 783.332 908.189 754.088C906.579 750.146 902.373 747.588 897.769 747.791C862.138 749.319 824.867 753.539 789.183 755.149C784.451 755.36 781.276 759.678 782.871 763.756V763.764Z" fill="#231F20"/>
<path d="M855.487 786.778C852.538 788.884 850.973 792.104 851.447 795.174C851.891 798.063 854.163 800.967 857.691 801.629C860.317 802.118 862.604 801.17 863.236 800.884C865.674 799.786 866.855 798.04 867.216 797.454C866.863 797.619 862.461 799.605 858.519 797.672C854.9 795.896 854.17 792.044 854.547 789.531C854.727 788.343 855.156 787.395 855.495 786.785L855.487 786.778Z" fill="url(#paint1_linear_6_260)"/>
<path d="M1092.73 602.74C1098.08 603.221 1103.32 604.778 1108.24 606.975C1113.14 609.225 1117.75 612.091 1122.02 615.417C1124.15 617.079 1126.17 618.9 1128.05 620.848C1129.93 622.79 1131.69 624.859 1133.3 627.048C1136.5 631.419 1139.11 636.279 1140.78 641.47C1142.4 646.661 1143.16 652.169 1142.63 657.631C1142.07 663.078 1140.34 668.321 1137.96 673.166C1135.6 678.034 1132.69 682.586 1129.59 686.972C1126.44 691.328 1123.12 695.549 1119.69 699.671C1122.85 695.338 1126.05 691.035 1128.99 686.558C1131.95 682.104 1134.73 677.522 1136.93 672.677C1139.11 667.84 1140.8 662.746 1141.28 657.495C1141.75 652.266 1140.97 646.932 1139.35 641.922C1137.77 636.888 1135.29 632.141 1132.2 627.853C1129.12 623.534 1125.36 619.735 1121.3 616.319C1117.2 612.941 1112.71 609.992 1107.93 607.645C1103.17 605.252 1098.03 603.567 1092.74 602.74H1092.73Z" fill="white"/>
<path d="M1103.02 850.998C1104.79 853.819 1106.04 856.926 1107.24 860.018C1108.42 863.133 1109.47 866.285 1110.46 869.468C1112.41 875.825 1114.12 882.265 1115.45 888.795C1116.12 892.053 1116.6 895.386 1116.6 898.741C1116.58 902.089 1116.19 905.445 1115.26 908.68C1114.8 910.29 1114.23 911.885 1113.52 913.405C1112.83 914.939 1111.98 916.399 1111.03 917.783C1109.12 920.559 1106.68 922.959 1103.93 924.893C1098.42 928.798 1091.9 930.904 1085.4 932.318C1082.14 933.033 1078.85 933.56 1075.55 934.041C1072.26 934.515 1068.96 934.944 1065.65 935.29C1059.03 935.967 1052.38 936.396 1045.72 936.562C1039.06 936.712 1032.41 936.577 1025.76 936.208C1032.42 936.449 1039.07 936.426 1045.7 936.17C1052.35 935.922 1058.97 935.426 1065.57 934.666C1068.87 934.297 1072.16 933.861 1075.45 933.372C1078.74 932.875 1082.01 932.341 1085.25 931.619C1091.69 930.182 1098.1 928.075 1103.51 924.291C1106.21 922.403 1108.59 920.078 1110.46 917.377C1111.4 916.03 1112.23 914.608 1112.92 913.111C1113.62 911.629 1114.18 910.072 1114.64 908.492C1115.56 905.324 1116 902.029 1116.05 898.734C1116.05 897.086 1115.99 895.431 1115.8 893.791C1115.62 892.151 1115.32 890.518 1115.01 888.886C1114.38 885.628 1113.63 882.385 1112.83 879.165C1112.02 875.945 1111.16 872.733 1110.22 869.543C1109.27 866.353 1108.27 863.186 1107.13 860.064C1105.97 856.956 1104.77 853.834 1103.03 850.998H1103.02Z" fill="white"/>
<path d="M966.781 1120.19C965.698 1121.55 964.75 1123 964.028 1124.56C963.659 1125.34 963.328 1126.13 963.057 1126.95C962.726 1127.72 962.816 1128.54 963.283 1129.18C963.516 1129.48 963.817 1129.73 964.171 1129.87C964.502 1130 964.953 1130.07 965.367 1130.17C966.209 1130.35 967.06 1130.52 967.902 1130.66C969.602 1130.94 971.31 1131.15 973.018 1131.21C976.434 1131.38 979.894 1130.95 983.047 1129.61C986.192 1128.32 989.028 1126.11 990.758 1123.08C990.029 1124.66 988.968 1126.08 987.674 1127.27C986.372 1128.45 984.882 1129.42 983.28 1130.14C980.075 1131.64 976.479 1132.08 972.988 1131.95C971.235 1131.87 969.497 1131.64 967.782 1131.33C966.924 1131.17 966.074 1130.99 965.224 1130.8C964.802 1130.69 964.381 1130.64 963.915 1130.44C963.471 1130.24 963.095 1129.91 962.816 1129.51C962.545 1129.11 962.372 1128.63 962.35 1128.15C962.312 1127.68 962.448 1127.17 962.613 1126.78C962.922 1125.96 963.29 1125.17 963.704 1124.4C964.547 1122.87 965.57 1121.43 966.781 1120.19Z" fill="white"/>
<path d="M813.01 1121.32C811.422 1121.95 809.797 1122.66 808.661 1123.91C808.097 1124.52 807.661 1125.26 807.465 1126.05C807.254 1126.84 807.33 1127.67 807.683 1128.38C808.022 1129.1 808.646 1129.65 809.323 1130.09C810.023 1130.51 810.805 1130.81 811.61 1131.04C812.423 1131.27 813.243 1131.42 814.093 1131.52C814.936 1131.64 815.786 1131.74 816.636 1131.83C820.037 1132.22 823.46 1132.31 826.883 1132.21C828.598 1132.16 830.306 1132.04 832.014 1131.85C833.722 1131.7 835.422 1131.45 837.122 1131.19C833.782 1132.04 830.359 1132.55 826.913 1132.79C823.467 1133.01 819.999 1132.92 816.553 1132.58C815.696 1132.48 814.838 1132.37 813.98 1132.24C813.13 1132.12 812.257 1131.95 811.415 1131.7C810.572 1131.46 809.737 1131.12 808.97 1130.64C808.217 1130.15 807.51 1129.49 807.149 1128.63C806.765 1127.78 806.728 1126.79 806.999 1125.93C807.262 1125.05 807.758 1124.29 808.39 1123.66C809.692 1122.44 811.362 1121.81 813.002 1121.33L813.01 1121.32Z" fill="white"/>
<path d="M1057.74 736.077C1060.58 734.46 1064.14 734.407 1067.2 735.543C1070.28 736.649 1072.96 738.748 1075.02 741.276C1077.12 743.789 1078.69 746.685 1080.02 749.642C1081.36 752.614 1082.43 755.676 1083.45 758.745C1085.43 764.915 1087.01 771.212 1088.16 777.584C1088.72 780.774 1089.19 783.979 1089.55 787.192C1089.89 790.412 1090.15 793.632 1090.26 796.867C1089.98 793.647 1089.64 790.434 1089.18 787.237C1088.74 784.039 1088.22 780.857 1087.58 777.689C1086.33 771.362 1084.76 765.095 1082.72 758.979C1081.73 755.909 1080.69 752.862 1079.39 749.92C1078.11 746.979 1076.55 744.15 1074.57 741.637C1072.61 739.124 1070.05 737.048 1067.06 735.889C1064.12 734.67 1060.64 734.618 1057.73 736.077H1057.74Z" fill="#FF5900"/>
<path d="M1111.67 968.642C1091.38 968.642 1071.09 968.642 1050.81 968.642C1033.48 968.642 1016.16 968.642 998.838 968.642C990.585 968.642 983.792 961.848 983.792 953.595C983.792 945.342 990.525 938.548 998.838 938.548H1111.67C1119.99 938.548 1126.72 945.281 1126.72 953.595C1126.72 961.908 1119.99 968.642 1111.67 968.642H1111.67Z" fill="#E6AF5B"/>
<path d="M1050.22 1136.31C1073.58 1136.31 1092.53 1134.63 1092.53 1132.57C1092.53 1130.5 1073.58 1128.83 1050.22 1128.83C1026.85 1128.83 1007.9 1130.5 1007.9 1132.57C1007.9 1134.63 1026.85 1136.31 1050.22 1136.31Z" fill="#133251"/>
<path d="M1050.22 1128.56C1050.66 1075.26 1051.1 1021.95 1051.55 968.642L1050.22 1128.56Z" fill="#15385A"/>
<path d="M1047.77 968.6L1046.43 1128.51L1053.95 1128.58L1055.29 968.663L1047.77 968.6Z" fill="#15385A"/>
<path d="M1123.25 944.537C1116.93 935.599 1071.37 966.716 1032.77 968.612C1032.77 968.612 1032.6 967.543 1032.77 968.612C1032.77 968.612 1070.49 969.913 1113.19 968.679C1121.39 967.95 1132.43 957.537 1123.25 944.537Z" fill="#F6CC7E"/>
<path d="M639.963 844.151L1301.17 849.914" stroke="#402312" stroke-width="35" stroke-miterlimit="10" stroke-linecap="round"/>
<path d="M1237.75 863.87L1136.59 1133.74" stroke="#402312" stroke-width="10" stroke-miterlimit="10" stroke-linecap="round"/>
<path d="M1135.73 859.401L1257.32 1133.54" stroke="#402312" stroke-width="10" stroke-miterlimit="10" stroke-linecap="round"/>
<path d="M718.011 852.164L819.186 1130.55" stroke="#402312" stroke-width="10" stroke-miterlimit="10" stroke-linecap="round"/>
<path d="M819.232 855.677L691.679 1132.43" stroke="#402312" stroke-width="10" stroke-miterlimit="10" stroke-linecap="round"/>
<path d="M1304.15 844.227C1307.39 847.326 1306.82 853.638 1302.58 856.121C1300.53 857.34 1298.14 857.521 1295.94 857.588C1293.73 857.611 1291.56 857.588 1289.37 857.588C1285 857.536 1280.63 857.468 1276.26 857.31C1271.89 857.175 1267.52 856.941 1263.15 856.61C1267.52 856.354 1271.9 856.196 1276.27 856.136C1280.64 856.053 1285.01 856.061 1289.39 856.084L1295.93 856.174C1298.07 856.196 1300.21 856.038 1302.02 855.106C1303.79 854.195 1305.04 852.344 1305.46 850.291C1305.91 848.252 1305.52 845.965 1304.16 844.227H1304.15Z" fill="#B07A48"/>
<path d="M635.976 837.29C634.727 838.358 633.809 839.795 633.501 841.36C633.237 842.933 633.553 844.573 634.403 845.897C635.216 847.236 636.42 848.319 637.827 849.012C639.218 849.726 640.783 850.148 642.356 850.403C645.531 850.9 648.796 850.825 652.084 850.764L661.947 850.659C668.522 850.629 675.098 850.622 681.673 850.704C688.249 850.765 694.824 850.923 701.4 851.171C694.824 851.502 688.256 851.743 681.681 851.878C675.105 852.036 668.53 852.111 661.962 852.164L652.099 852.179C648.818 852.149 645.47 852.201 642.153 851.547C640.505 851.208 638.857 850.727 637.36 849.862C635.863 849.019 634.577 847.763 633.764 846.243C632.936 844.731 632.718 842.91 633.109 841.262C633.538 839.615 634.622 838.215 635.968 837.275L635.976 837.29Z" fill="#B07A48"/>
<path d="M762.168 465.286L749.719 465.943C747.653 466.052 746.066 467.815 746.175 469.882L746.175 469.889C746.284 471.956 748.048 473.542 750.114 473.433L762.563 472.777C764.63 472.668 766.216 470.904 766.107 468.838L766.107 468.83C765.998 466.764 764.234 465.177 762.168 465.286Z" fill="#241F20"/>
<path d="M812.231 465.1L799.436 464.597C797.369 464.516 795.627 466.126 795.545 468.194L795.545 468.201C795.464 470.269 797.074 472.011 799.142 472.092L811.937 472.595C814.004 472.676 815.746 471.066 815.828 468.998L815.828 468.991C815.909 466.923 814.299 465.181 812.231 465.1Z" fill="#241F20"/>
<path opacity="0.54" d="M673.661 734.121C673.909 732.398 674.007 730.66 673.947 728.923C673.947 727.102 673.661 725.545 673.661 723.724L685.781 715.14C686.947 714.38 687.225 712.883 686.398 711.807C686.383 711.792 686.375 711.777 686.36 711.762L674.819 693.811C674.097 692.72 672.623 692.283 671.344 692.765L656.921 697.979C653.919 695.842 650.624 694.097 647.111 692.772L645.079 678.982C644.718 677.778 643.544 676.936 642.19 676.898H619.116C617.762 676.936 616.596 677.778 616.227 678.982L613.91 692.765C610.434 694.149 607.139 695.895 604.099 697.979L589.669 692.765C588.39 692.231 586.885 692.682 586.193 693.811L574.66 711.762C574.111 712.898 574.336 714.222 575.239 715.14L587.645 723.724C587.645 725.545 587.359 727.102 587.359 728.923C587.359 730.743 587.645 732.301 587.645 734.121L575.525 742.705C574.359 743.465 574.081 744.963 574.908 746.038C574.923 746.053 574.931 746.068 574.946 746.084L586.487 764.034C587.209 765.125 588.684 765.562 589.963 765.08L604.393 759.874C607.394 762.011 610.69 763.764 614.196 765.08L616.513 778.863C616.776 780.12 618.01 781.007 619.402 780.947H642.484C643.838 780.909 645.004 780.067 645.373 778.863L647.69 765.08C651.166 763.696 654.453 761.95 657.485 759.866L671.915 765.073C673.194 765.607 674.699 765.155 675.391 764.027L686.932 746.076C687.481 744.94 687.256 743.616 686.353 742.698L673.646 734.121H673.661ZM630.664 747.129C619.755 746.896 611.118 738.56 611.367 728.509C611.615 718.457 620.658 710.49 631.567 710.716C642.296 710.942 650.872 719.029 650.872 728.923C650.82 739.034 641.882 747.182 630.92 747.129C630.837 747.129 630.755 747.129 630.672 747.129H630.664Z" fill="#96B2EC"/>
<path opacity="0.54" d="M960.657 268.15C960.777 267.112 960.823 266.059 960.793 265.013C960.793 263.914 960.657 262.974 960.657 261.875L966.465 256.699C967.022 256.24 967.157 255.338 966.759 254.691C966.759 254.683 966.743 254.668 966.743 254.661L961.206 243.834C960.86 243.18 960.153 242.909 959.544 243.202L952.63 246.347C951.193 245.061 949.613 244.007 947.927 243.21L946.957 234.896C946.784 234.174 946.22 233.663 945.573 233.64H934.506C933.859 233.663 933.294 234.167 933.121 234.896L932.008 243.21C930.338 244.045 928.765 245.098 927.306 246.355L920.392 243.21C919.782 242.886 919.06 243.157 918.729 243.842L913.199 254.668C912.936 255.353 913.049 256.15 913.478 256.707L919.429 261.883C919.429 262.981 919.293 263.922 919.293 265.02C919.293 266.119 919.429 267.059 919.429 268.158L913.621 273.334C913.064 273.793 912.928 274.695 913.327 275.342C913.327 275.35 913.342 275.365 913.342 275.373L918.879 286.199C919.226 286.853 919.933 287.124 920.542 286.831L927.464 283.693C928.901 284.98 930.481 286.041 932.166 286.831L933.279 295.144C933.407 295.904 933.994 296.438 934.664 296.401H945.731C946.378 296.378 946.942 295.874 947.115 295.144L948.228 286.831C949.891 285.996 951.471 284.942 952.923 283.686L959.845 286.823C960.454 287.147 961.176 286.876 961.507 286.191L967.044 275.365C967.308 274.68 967.202 273.883 966.766 273.326L960.672 268.15H960.657ZM940.035 275.997C934.807 275.862 930.661 270.828 930.782 264.765C930.902 258.701 935.235 253.893 940.472 254.036C945.618 254.172 949.725 259.047 949.725 265.013C949.695 271.107 945.415 276.027 940.156 275.997C940.118 275.997 940.073 275.997 940.035 275.997Z" fill="#96B2EC"/>
<path d="M533.536 649.129L521.087 649.786C519.021 649.895 517.434 651.659 517.543 653.725L517.543 653.733C517.652 655.799 519.416 657.386 521.482 657.277L533.931 656.62C535.997 656.511 537.584 654.747 537.475 652.681L537.475 652.674C537.366 650.607 535.602 649.02 533.536 649.129Z" fill="#241F20"/>
<path d="M1356.95 447.87L1344.5 448.527C1342.43 448.636 1340.85 450.4 1340.96 452.466L1340.96 452.474C1341.07 454.54 1342.83 456.127 1344.9 456.018L1357.34 455.361C1359.41 455.252 1361 453.488 1360.89 451.422L1360.89 451.415C1360.78 449.348 1359.02 447.761 1356.95 447.87Z" fill="#241F20"/>
<path d="M1316.79 453.162L1304.34 453.819C1302.27 453.928 1300.68 455.691 1300.79 457.757L1300.79 457.765C1300.9 459.831 1302.67 461.418 1304.73 461.309L1317.18 460.652C1319.25 460.543 1320.83 458.78 1320.72 456.713L1320.72 456.706C1320.62 454.64 1318.85 453.053 1316.79 453.162Z" fill="#241F20"/>
<path d="M502.129 650.782L489.68 651.439C487.613 651.548 486.026 653.311 486.135 655.378L486.136 655.385C486.245 657.451 488.008 659.038 490.075 658.929L502.524 658.272C504.59 658.163 506.177 656.4 506.068 654.334L506.067 654.326C505.958 652.26 504.195 650.673 502.129 650.782Z" fill="#241F20"/>
<path d="M192.725 728.923C235.398 728.923 269.991 696.603 269.991 656.735C269.991 616.867 235.398 584.548 192.725 584.548C150.053 584.548 115.46 616.867 115.46 656.735C115.46 696.603 150.053 728.923 192.725 728.923Z" fill="#96B2EC"/>
<path d="M192.725 707.782C222.534 707.782 246.699 684.927 246.699 656.735C246.699 628.543 222.534 605.689 192.725 605.689C162.917 605.689 138.752 628.543 138.752 656.735C138.752 684.927 162.917 707.782 192.725 707.782Z" fill="#7B94EA"/>
<path d="M177.027 682.164V680.837C178.341 680.62 179.043 679.676 179.043 678.669C179.043 677.533 178.38 676.87 177.066 676.334C175.956 675.875 175.484 675.543 175.484 674.88C175.484 674.37 175.854 673.783 176.836 673.783C177.652 673.783 178.175 674.064 178.443 674.217L178.762 673.375C178.392 673.158 177.869 672.954 177.104 672.928V671.691H176.313V672.979C175.139 673.171 174.387 673.974 174.387 675.033C174.387 676.143 175.19 676.73 176.492 677.24C177.436 677.623 177.933 678.056 177.933 678.758C177.933 679.485 177.321 680.008 176.415 680.008C175.701 680.008 175.037 679.766 174.578 679.46L174.272 680.314C174.718 680.633 175.484 680.863 176.224 680.876V682.164H177.027Z" fill="#5A71B7"/>
<path d="M742.327 97.564L849.574 150.679L872.174 99.1815L742.327 97.564Z" fill="#7B94EA"/>
<path d="M860.001 68.4633L736.549 96.8416L875.966 142.042L879.02 111.309L770.683 97.925C770.502 97.9024 770.314 97.9024 770.502 97.9024L876.018 99.2868L859.993 68.4708L860.001 68.4633Z" fill="#96B2EC"/>
<path d="M1637.94 755.052C1638.19 752.968 1639.24 751.102 1640.89 749.808L1710.81 694.939C1714.22 692.261 1719.17 692.863 1721.85 696.271L1752.02 734.716C1753.31 736.363 1753.89 738.425 1753.63 740.509C1753.38 742.593 1752.33 744.459 1750.69 745.753L1680.76 800.621C1679.11 801.915 1677.05 802.494 1674.97 802.239C1672.89 801.983 1671.03 800.937 1669.73 799.289L1639.56 760.845C1638.26 759.197 1637.68 757.136 1637.94 755.052ZM1749.15 739.967C1749.26 739.117 1749.03 738.229 1748.47 737.499L1718.3 699.055C1717.16 697.603 1715.05 697.347 1713.6 698.49L1643.68 753.359C1642.98 753.908 1642.53 754.705 1642.42 755.593C1642.32 756.481 1642.56 757.354 1643.12 758.061L1673.28 796.506C1673.83 797.205 1674.63 797.657 1675.52 797.762C1676.41 797.867 1677.28 797.627 1677.99 797.07L1747.91 742.202C1748.63 741.63 1749.06 740.817 1749.17 739.967H1749.15Z" fill="#7B94EA"/>
<path d="M1755.32 722.685L1733.39 694.742L1724.55 701.681L1746.48 729.623L1755.32 722.685Z" fill="#7B94EA"/>
<path d="M1712.69 765.151L1682.89 727.175L1672.42 735.391L1702.22 773.366L1712.69 765.151Z" fill="#96B2EC"/>
<path d="M1688.46 784.16L1658.66 746.185L1648.19 754.401L1677.99 792.376L1688.46 784.16Z" fill="#96B2EC"/>
<path d="M1700.4 774.801L1670.6 736.826L1660.13 745.041L1689.93 783.017L1700.4 774.801Z" fill="#96B2EC"/>
<path d="M1443.62 263.109C1445.44 265.886 1448.17 268.007 1451.04 269.625C1448.3 271.468 1445.88 273.906 1444.23 276.787L1442.55 276.862C1444.2 274.071 1446.23 271.618 1448.78 269.73C1446.06 268.052 1443.74 265.765 1441.91 263.185L1443.62 263.109H1443.62Z" fill="#2E3192"/>
<path d="M1439.55 263.29C1441.36 266.066 1444.1 268.188 1446.97 269.805C1444.23 271.649 1441.81 274.086 1440.16 276.968L1438.48 277.043C1440.13 274.252 1442.15 271.799 1444.7 269.911C1441.98 268.233 1439.67 265.946 1437.83 263.365L1439.55 263.29Z" fill="#2E3192"/>
<path d="M1435.48 263.478C1437.3 266.254 1440.03 268.376 1442.9 269.993C1440.16 271.837 1437.74 274.274 1436.09 277.156L1434.41 277.231C1436.06 274.44 1438.08 271.987 1440.64 270.099C1437.92 268.421 1435.6 266.134 1433.77 263.553L1435.48 263.478H1435.48Z" fill="#2E3192"/>
<path d="M1431.41 263.659C1433.22 266.435 1435.96 268.556 1438.83 270.174C1436.09 272.017 1433.67 274.455 1432.02 277.336L1430.33 277.411C1431.98 274.62 1434 272.168 1436.56 270.279C1433.84 268.602 1431.53 266.314 1429.69 263.734L1431.41 263.659Z" fill="#2E3192"/>
<path d="M179.409 1138.79C201.29 1138.79 219.027 1136.47 219.027 1133.6C219.027 1130.73 201.29 1128.41 179.409 1128.41C157.528 1128.41 139.791 1130.73 139.791 1133.6C139.791 1136.47 157.528 1138.79 179.409 1138.79Z" fill="#7B94EA"/>
<path d="M129.25 1037.93C128.957 1058.52 128.663 1079.11 128.37 1099.7C130.055 1104.22 137.112 1121.47 155.56 1130.25C176.708 1140.31 197.149 1131.77 203.333 1129.18C217.44 1123.29 226.099 1113.88 230.23 1108.71C230.305 1085.65 230.38 1062.6 230.448 1039.54C196.713 1039 162.985 1038.46 129.25 1037.92V1037.93Z" fill="#96B2EC"/>
<path d="M219.027 1055.83H139.783V1061.83H219.027V1055.83Z" fill="#7B94EA"/>
<path d="M189.596 1045.38C195.411 1028.14 201.219 1010.89 207.035 993.642C210.059 984.659 213.091 975.676 216.116 966.701C245.705 978.565 275.295 990.437 304.885 1002.3C275.581 1024.9 264.664 1028.47 261.294 1025.44C257.645 1022.17 262.641 1010.97 257.592 1007.94C255.223 1006.52 251.28 1007.28 249.873 1009.34C247.767 1012.43 252.537 1016.67 250.821 1019.96C248.579 1024.24 236.497 1024.68 233.713 1020.06C230.877 1015.34 239.837 1008.89 237.031 1001.22C235.285 996.448 229.658 993.01 227.138 994.252C222.759 996.418 228.853 1012.16 223.91 1014.72C221.706 1015.85 218.117 1013.96 216.214 1011.84C212.331 1007.54 214.385 1001.2 213.309 1000.83C212 1000.38 207.05 1009.05 191.913 1046.04C191.145 1045.82 190.378 1045.61 189.611 1045.39L189.596 1045.38Z" fill="#96B2EC"/>
<path d="M223.737 843.828C209.262 851.299 194.787 858.777 180.304 866.248C187.549 872.327 190.777 880.542 188.512 887.133C187.339 890.549 184.164 895.04 181.162 894.656C175.82 893.979 177.408 878.692 171.223 876.562C163.286 873.831 144.741 893.468 148.683 904.685C151.73 913.36 166.484 912.035 170.456 923.644C171.758 927.451 171.961 932.808 169.613 934.23C163.941 937.66 148.232 915.03 143.575 917.776C139.64 920.093 142.928 940.828 156.545 954.204C169.44 966.874 186.488 967.897 195.103 968.424C205.29 969.04 220.682 969.966 233.593 960.05C252.589 945.455 257.826 913.834 248.925 906.889C248.263 906.37 247.707 906.137 246.894 905.806C231.704 899.562 212.662 919.22 208.186 915.173C205.628 912.863 207.832 902.857 214.227 898.945C224.79 892.475 239.461 907.115 245.976 901.465C250.558 897.493 249.068 885.237 243.08 881.122C236.188 876.382 224.662 883.356 223.421 880.911C222.172 878.451 234.699 873.072 236.045 863.998C237.121 856.761 230.741 849.561 223.745 843.843L223.737 843.828Z" fill="#5A71B7"/>
<path d="M179.431 1047.83C179.146 1020.84 181.132 986.706 189.182 948.118C197.397 908.763 209.548 876.141 220.84 851.246" fill="#5A71B7"/>
<path d="M165.829 1047.77C155.432 1015.14 145.034 982.515 134.637 949.886C98.3665 959.042 62.0885 968.19 25.8181 977.346C33.7553 988.285 38.1414 990.302 40.7295 989.474C43.6034 988.556 44.0473 984.2 47.9068 983.425C50.7958 982.846 54.3544 984.516 54.6704 986.442C55.1745 989.527 46.989 991.182 46.8837 994.387C46.6504 1001.11 82.1084 1011.97 87.45 1003.49C91.2644 997.434 78.7303 983.087 80.1222 982.094C81.514 981.108 89.692 998.465 104.235 1001.37C119.884 1004.49 139.505 990.211 138.256 985.351C138.098 984.734 137.624 984.366 137.09 983.99C128.152 977.738 118.025 980.649 113.797 975.586C110.607 971.771 111.706 964.534 114.181 963.368C116.551 962.247 119.846 966.874 129.709 973.6C133.651 976.293 137.022 978.212 139.144 979.363C147.532 1002.38 155.928 1025.41 164.317 1048.42C164.821 1048.2 165.325 1047.99 165.822 1047.77H165.829Z" fill="#7B94EA"/>
<path d="M1315.1 479.995C1317.18 479.995 1318.86 478.311 1318.86 476.233C1318.86 474.155 1317.18 472.471 1315.1 472.471C1313.02 472.471 1311.34 474.155 1311.34 476.233C1311.34 478.311 1313.02 479.995 1315.1 479.995Z" fill="#241F20"/>
<path d="M1348.2 476.986C1350.28 476.986 1351.97 475.301 1351.97 473.224C1351.97 471.146 1350.28 469.462 1348.2 469.462C1346.13 469.462 1344.44 471.146 1344.44 473.224C1344.44 475.301 1346.13 476.986 1348.2 476.986Z" fill="#241F20"/>
<defs>
<linearGradient id="paint0_linear_6_260" x1="489.41" y1="889.012" x2="505.102" y2="890.768" gradientUnits="userSpaceOnUse">
<stop stop-color="#0084CB"/>
<stop offset="1" stop-color="#0084CB" stop-opacity="0"/>
</linearGradient>
<linearGradient id="paint1_linear_6_260" x1="851.357" y1="794.271" x2="867.209" y2="794.271" gradientUnits="userSpaceOnUse">
<stop stop-color="white"/>
<stop offset="1" stop-color="#241F20"/>
</linearGradient>
</defs>
</svg>
